<svg width="32" height="32" viewBox="0 0 32 32" fill="none" xmlns="http://www.w3.org/2000/svg">
<mask id="mask0_3748_38678" style="mask-type:luminance" maskUnits="userSpaceOnUse" x="0" y="0" width="32" height="32">
<path d="M32 0H0V31.9827H32V0Z" fill="white"/>
</mask>
<g mask="url(#mask0_3748_38678)">
<mask id="mask1_3748_38678" style="mask-type:luminance" maskUnits="userSpaceOnUse" x="0" y="0" width="32" height="32">
<path d="M32 0H0V31.9827H32V0Z" fill="white"/>
</mask>
<g mask="url(#mask1_3748_38678)">
<mask id="mask2_3748_38678" style="mask-type:luminance" maskUnits="userSpaceOnUse" x="0" y="0" width="32" height="32">
<path d="M32 0H0V31.9827H32V0Z" fill="white"/>
</mask>
<g mask="url(#mask2_3748_38678)">
<mask id="mask3_3748_38678" style="mask-type:luminance" maskUnits="userSpaceOnUse" x="3" y="3" width="26" height="26">
<path d="M26.3435 4.36127H5.65702C4.94298 4.36127 4.36412 4.93982 4.36412 5.6535V26.3292C4.36412 27.0428 4.94298 27.6214 5.65702 27.6214H26.3435C27.0575 27.6214 27.6364 27.0428 27.6364 26.3292V5.6535C27.6364 4.93982 27.0575 4.36127 26.3435 4.36127Z" stroke="white" stroke-width="2"/>
</mask>
<g mask="url(#mask3_3748_38678)">
<path d="M26.3435 4.36127H5.65702C4.94298 4.36127 4.36412 4.93982 4.36412 5.6535V26.3292C4.36412 27.0428 4.94298 27.6214 5.65702 27.6214H26.3435C27.0575 27.6214 27.6364 27.0428 27.6364 26.3292V5.6535C27.6364 4.93982 27.0575 4.36127 26.3435 4.36127Z" fill="white" stroke="white" stroke-width="2"/>
</g>
<path d="M23.7729 19.8526V12.1301H31.5V19.8526H23.7729Z" fill="white" stroke="white"/>
<path d="M0.5 19.8526V12.1301H8.22711V19.8526H0.5Z" fill="white" stroke="white"/>
<path d="M15.9993 0.5C18.1333 0.5 19.8629 2.22901 19.8629 4.36127C19.8629 6.49355 18.1333 8.22255 15.9993 8.22255C13.8653 8.22255 12.1358 6.49355 12.1358 4.36127C12.1358 2.229 13.8653 0.5 15.9993 0.5Z" fill="white" stroke="white"/>
<path d="M15.9993 23.7601C18.1333 23.7601 19.8629 25.4892 19.8629 27.6214C19.8629 29.7537 18.1333 31.4827 15.9993 31.4827C13.8653 31.4827 12.1358 29.7537 12.1358 27.6214C12.1358 25.4892 13.8653 23.7601 15.9993 23.7601Z" fill="white" stroke="white"/>
</g>
</g>
</g>
<path d="M16.445 12.8334C17.1593 12.8334 17.8576 13.0452 18.4515 13.4421C19.0454 13.8389 19.5084 14.403 19.7817 15.0629C20.0551 15.7228 20.1266 16.449 19.9872 17.1496C19.8479 17.8502 19.5039 18.4937 18.9988 18.9988C18.6638 19.3359 18.2656 19.6035 17.827 19.7864C17.3884 19.9693 16.918 20.0638 16.4427 20.0646C15.9675 20.0653 15.4968 19.9723 15.0576 19.7908C14.6184 19.6093 14.2194 19.3429 13.8833 19.0068C13.5473 18.6708 13.2809 18.2718 13.0994 17.8326C12.9178 17.3934 12.8248 16.9227 12.8255 16.4475C12.8262 15.9723 12.9207 15.5018 13.1036 15.0632C13.2865 14.6246 13.5541 14.2264 13.8912 13.8914C14.2258 13.5549 14.6238 13.2882 15.0621 13.1066C15.5005 12.925 15.9705 12.8322 16.445 12.8334ZM16.445 12C13.9902 12 12 13.9902 12 16.445C12 18.8998 13.9902 20.89 16.445 20.89C18.8998 20.89 20.89 18.9 20.89 16.445C20.89 13.99 18.8998 12 16.445 12Z" fill="white"/>
<path d="M15.7866 18.368C15.7318 18.3681 15.6775 18.3575 15.6269 18.3366C15.5762 18.3157 15.5302 18.2851 15.4914 18.2464L14.0567 16.8117C13.9796 16.7333 13.9366 16.6277 13.937 16.5178C13.9375 16.4078 13.9813 16.3025 14.0591 16.2248C14.1368 16.1471 14.2421 16.1032 14.352 16.1027C14.462 16.1023 14.5676 16.1453 14.646 16.2224L15.7788 17.355L18.2065 14.8045C18.2441 14.7645 18.2893 14.7322 18.3394 14.7097C18.3895 14.6872 18.4436 14.6748 18.4986 14.6733C18.5535 14.6717 18.6082 14.6811 18.6595 14.7007C18.7108 14.7204 18.7577 14.7501 18.7975 14.7879C18.8373 14.8258 18.8693 14.8712 18.8915 14.9215C18.9137 14.9718 18.9257 15.0259 18.9269 15.0809C18.928 15.1358 18.9183 15.1904 18.8983 15.2416C18.8783 15.2928 18.8484 15.3395 18.8102 15.3791L16.0884 18.2386C16.05 18.2789 16.0041 18.311 15.9531 18.3333C15.9022 18.3555 15.8473 18.3673 15.7918 18.368H15.7866Z" fill="white"/>
</svg>
