<svg width="32" height="32" viewBox="0 0 32 32" fill="none" xmlns="http://www.w3.org/2000/svg">
<mask id="mask0_3748_38676" style="mask-type:luminance" maskUnits="userSpaceOnUse" x="0" y="0" width="32" height="32">
<path d="M32 0H0V31.9827H32V0Z" fill="white"/>
</mask>
<g mask="url(#mask0_3748_38676)">
<mask id="mask1_3748_38676" style="mask-type:luminance" maskUnits="userSpaceOnUse" x="0" y="0" width="32" height="32">
<path d="M32 0H0V31.9827H32V0Z" fill="white"/>
</mask>
<g mask="url(#mask1_3748_38676)">
<mask id="mask2_3748_38676" style="mask-type:luminance" maskUnits="userSpaceOnUse" x="0" y="0" width="32" height="32">
<path d="M32 0H0V31.9827H32V0Z" fill="white"/>
</mask>
<g mask="url(#mask2_3748_38676)">
<mask id="mask3_3748_38676" style="mask-type:luminance" maskUnits="userSpaceOnUse" x="3" y="3" width="26" height="26">
<path d="M26.3435 4.36127H5.65701C4.94296 4.36127 4.36411 4.93982 4.36411 5.6535V26.3292C4.36411 27.0428 4.94296 27.6214 5.65701 27.6214H26.3435C27.0575 27.6214 27.6364 27.0428 27.6364 26.3292V5.6535C27.6364 4.93982 27.0575 4.36127 26.3435 4.36127Z" stroke="white" stroke-width="2"/>
</mask>
<g mask="url(#mask3_3748_38676)">
<path d="M26.3435 4.36127H5.65701C4.94296 4.36127 4.36411 4.93982 4.36411 5.6535V26.3292C4.36411 27.0428 4.94296 27.6214 5.65701 27.6214H26.3435C27.0575 27.6214 27.6364 27.0428 27.6364 26.3292V5.6535C27.6364 4.93982 27.0575 4.36127 26.3435 4.36127Z" fill="white" stroke="white" stroke-width="2"/>
</g>
<path d="M23.7729 19.8526V12.1301H31.5V19.8526H23.7729Z" fill="white" stroke="white"/>
<path d="M0.5 19.8526V12.1301H8.22711V19.8526H0.5Z" fill="white" stroke="white"/>
<path d="M15.9993 0.5C18.1333 0.5 19.8629 2.22901 19.8629 4.36127C19.8629 6.49355 18.1333 8.22255 15.9993 8.22255C13.8653 8.22255 12.1357 6.49355 12.1357 4.36127C12.1357 2.229 13.8653 0.5 15.9993 0.5Z" fill="white" stroke="white"/>
<path d="M15.9993 23.7601C18.1333 23.7601 19.8629 25.4892 19.8629 27.6214C19.8629 29.7537 18.1333 31.4827 15.9993 31.4827C13.8653 31.4827 12.1357 29.7537 12.1357 27.6214C12.1357 25.4892 13.8653 23.7601 15.9993 23.7601Z" fill="white" stroke="white"/>
</g>
</g>
</g>
<path d="M20.4631 14.5441C20.1003 13.7751 19.5258 13.1294 18.802 12.6764C17.7952 12.048 16.6044 11.8484 15.4467 12.1157C14.2906 12.3813 13.3064 13.0825 12.678 14.0893C12.0479 15.0961 11.8483 16.2868 12.1156 17.4446C12.383 18.6007 13.0842 19.5849 14.0893 20.2132C14.7975 20.6558 15.6098 20.8902 16.4413 20.8902H16.4951C17.3231 20.8798 18.1285 20.6402 18.8263 20.1993C19.0294 20.0709 19.0884 19.8036 18.9599 19.6005C18.8315 19.3974 18.5642 19.3384 18.3611 19.4668C17.8004 19.8227 17.1512 20.0153 16.4847 20.024C15.8008 20.0327 15.1325 19.8435 14.5492 19.4807C13.7386 18.9739 13.1745 18.1823 12.961 17.2519C12.7475 16.3181 12.9072 15.3599 13.414 14.5493C14.459 12.8777 16.6704 12.3674 18.342 13.4123C18.9252 13.7769 19.3869 14.2959 19.6785 14.9138C19.9632 15.5161 20.0743 16.1844 19.9997 16.844C19.9736 17.0818 20.1437 17.2971 20.3833 17.3231C20.6211 17.3491 20.8363 17.179 20.8624 16.9395C20.9544 16.1219 20.8155 15.2922 20.4631 14.5441Z" fill="white"/>
<path d="M17.9514 14.9381C17.7813 14.768 17.507 14.768 17.3369 14.9381L16.4447 15.832L15.5525 14.9398C15.3824 14.7697 15.1081 14.7697 14.938 14.9398C14.7679 15.1099 14.7679 15.3842 14.938 15.5543L15.8302 16.4465L14.938 17.3387C14.7679 17.5088 14.7679 17.7831 14.938 17.9532C15.0231 18.0382 15.1342 18.0799 15.2453 18.0799C15.3564 18.0799 15.4675 18.0382 15.5525 17.9532L16.4447 17.061L17.3369 17.9532C17.422 18.0382 17.5331 18.0799 17.6442 18.0799C17.7552 18.0799 17.8663 18.0382 17.9514 17.9532C18.1215 17.7831 18.1215 17.5088 17.9514 17.3387L17.0592 16.4447L17.9514 15.5525C18.1215 15.3824 18.1215 15.1082 17.9514 14.9381Z" fill="white"/>
</svg>
