<svg width="32" height="32" viewBox="0 0 32 32" fill="none" xmlns="http://www.w3.org/2000/svg">
<mask id="mask0_3748_38677" style="mask-type:luminance" maskUnits="userSpaceOnUse" x="0" y="0" width="32" height="32">
<path d="M32 0H0V31.9827H32V0Z" fill="white"/>
</mask>
<g mask="url(#mask0_3748_38677)">
<mask id="mask1_3748_38677" style="mask-type:luminance" maskUnits="userSpaceOnUse" x="0" y="0" width="32" height="32">
<path d="M32 0H0V31.9827H32V0Z" fill="white"/>
</mask>
<g mask="url(#mask1_3748_38677)">
<mask id="mask2_3748_38677" style="mask-type:luminance" maskUnits="userSpaceOnUse" x="0" y="0" width="32" height="32">
<path d="M32 0H0V31.9827H32V0Z" fill="white"/>
</mask>
<g mask="url(#mask2_3748_38677)">
<mask id="mask3_3748_38677" style="mask-type:luminance" maskUnits="userSpaceOnUse" x="3" y="3" width="26" height="26">
<path d="M26.3435 4.36127H5.65702C4.94298 4.36127 4.36412 4.93982 4.36412 5.6535V26.3292C4.36412 27.0428 4.94298 27.6214 5.65702 27.6214H26.3435C27.0575 27.6214 27.6364 27.0428 27.6364 26.3292V5.6535C27.6364 4.93982 27.0575 4.36127 26.3435 4.36127Z" stroke="white" stroke-width="2"/>
</mask>
<g mask="url(#mask3_3748_38677)">
<path d="M26.3435 4.36127H5.65702C4.94298 4.36127 4.36412 4.93982 4.36412 5.6535V26.3292C4.36412 27.0428 4.94298 27.6214 5.65702 27.6214H26.3435C27.0575 27.6214 27.6364 27.0428 27.6364 26.3292V5.6535C27.6364 4.93982 27.0575 4.36127 26.3435 4.36127Z" fill="white" stroke="white" stroke-width="2"/>
</g>
<path d="M23.7729 19.8526V12.1301H31.5V19.8526H23.7729Z" fill="white" stroke="white"/>
<path d="M0.5 19.8526V12.1301H8.22711V19.8526H0.5Z" fill="white" stroke="white"/>
<path d="M15.9993 0.5C18.1333 0.5 19.8629 2.22901 19.8629 4.36127C19.8629 6.49355 18.1333 8.22255 15.9993 8.22255C13.8653 8.22255 12.1358 6.49355 12.1358 4.36127C12.1358 2.229 13.8653 0.5 15.9993 0.5Z" fill="white" stroke="white"/>
<path d="M15.9993 23.7601C18.1333 23.7601 19.8629 25.4892 19.8629 27.6214C19.8629 29.7537 18.1333 31.4827 15.9993 31.4827C13.8653 31.4827 12.1358 29.7537 12.1358 27.6214C12.1358 25.4892 13.8653 23.7601 15.9993 23.7601Z" fill="white" stroke="white"/>
</g>
</g>
</g>
<path d="M19.8721 18.5372C19.7199 18.424 19.5047 18.4556 19.3915 18.6078C19.3292 18.6915 19.2626 18.7736 19.1935 18.8518C19.0678 18.9939 19.0812 19.211 19.2233 19.3366C19.2887 19.3944 19.3698 19.4227 19.4506 19.4227C19.5456 19.4227 19.6402 19.3835 19.7081 19.3068C19.79 19.2141 19.8689 19.1169 19.9426 19.0178C20.0559 18.8656 20.0243 18.6504 19.8721 18.5372Z" fill="white"/>
<path d="M20.4465 16.9266C20.2613 16.8862 20.0782 17.0038 20.0378 17.1891C20.0156 17.2911 19.9888 17.3932 19.9581 17.4927C19.9021 17.674 20.0036 17.8663 20.1848 17.9223C20.2186 17.9327 20.2527 17.9377 20.2863 17.9377C20.433 17.9377 20.5688 17.843 20.6143 17.6955C20.6509 17.5774 20.6827 17.4562 20.709 17.3352C20.7494 17.1499 20.6318 16.9669 20.4465 16.9266Z" fill="white"/>
<path d="M18.2189 19.6373C18.1277 19.6882 18.0333 19.7358 17.9383 19.7787C17.7654 19.8568 17.6886 20.0602 17.7666 20.2331C17.824 20.3601 17.949 20.4353 18.0799 20.4353C18.1271 20.4353 18.1751 20.4254 18.221 20.4047C18.3337 20.3538 18.4456 20.2974 18.5538 20.2371C18.7194 20.1446 18.7787 19.9354 18.6862 19.7698C18.5938 19.6042 18.3845 19.5449 18.2189 19.6373Z" fill="white"/>
<path d="M16.0528 13.6486V16.254L14.7933 17.5134C14.6592 17.6476 14.6592 17.865 14.7933 17.9991C14.8604 18.0662 14.9483 18.0997 15.0362 18.0997C15.1241 18.0997 15.212 18.0662 15.2791 17.9991L16.6391 16.6391C16.7035 16.5747 16.7397 16.4874 16.7397 16.3963V13.6486C16.7397 13.4589 16.5859 13.3052 16.3962 13.3052C16.2065 13.3052 16.0528 13.4589 16.0528 13.6486Z" fill="white"/>
<path d="M20.449 12.7384C20.2593 12.7384 20.1055 12.8922 20.1055 13.0819V14.0356C19.3061 12.7818 17.91 12 16.3962 12C15.222 12 14.118 12.4573 13.2876 13.2876C12.4573 14.118 12 15.222 12 16.3962C12 17.5705 12.4573 18.6745 13.2876 19.5048C14.118 20.3352 15.222 20.7925 16.3962 20.7925C16.3991 20.7925 16.4019 20.7921 16.4048 20.792C16.4077 20.7921 16.4105 20.7925 16.4134 20.7925C16.5372 20.7925 16.6622 20.7872 16.785 20.777C16.974 20.7611 17.1144 20.5951 17.0986 20.406C17.0827 20.217 16.9169 20.0766 16.7276 20.0925C16.6239 20.1011 16.5181 20.1055 16.4134 20.1055C16.4105 20.1055 16.4077 20.1059 16.4048 20.106C16.4019 20.1059 16.3991 20.1055 16.3962 20.1055C14.3509 20.1055 12.6869 18.4416 12.6869 16.3962C12.6869 14.3509 14.3509 12.6869 16.3962 12.6869C17.7144 12.6869 18.9268 13.3895 19.5893 14.5072H18.6449C18.4552 14.5072 18.3014 14.661 18.3014 14.8507C18.3014 15.0404 18.4552 15.1941 18.6449 15.1941H19.6934C19.9026 15.1941 20.0982 15.1354 20.2649 15.0335C20.2756 15.0274 20.2859 15.0208 20.2957 15.0137C20.5946 14.8171 20.7925 14.4788 20.7925 14.0951V13.0819C20.7925 12.8922 20.6387 12.7384 20.449 12.7384Z" fill="white"/>
</svg>
