<svg width="131" height="50" viewBox="0 0 131 50" fill="none" xmlns="http://www.w3.org/2000/svg">
<mask id="mask0_138_52" style="mask-type:luminance" maskUnits="userSpaceOnUse" x="0" y="0" width="131" height="38">
<path d="M130.521 0.160156H0V37.2802H130.521V0.160156Z" fill="white"/>
</mask>
<g mask="url(#mask0_138_52)">
<path d="M34.1878 17.2002C34.1878 26.6402 26.5195 34.3202 17.0939 34.3202C14.1384 34.3202 11.3427 33.6002 8.94634 32.2402C3.59451 29.3602 0 23.6802 0 17.2002C0 7.84016 7.66829 0.160156 17.0939 0.160156C26.5195 0.160156 34.1878 7.84016 34.1878 17.2002Z" fill="#20B276"/>
<path d="M23.884 22.0798C22.0468 23.9198 19.8901 24.8798 17.334 24.8798C15.7365 24.8798 14.2986 24.6398 12.9407 23.8398V33.7598H12.781H12.7011L12.6212 33.6798L12.5413 33.5998L12.4615 33.5198L12.5413 33.4398L7.98828 28.0798V15.3598C7.98828 12.7198 8.86694 10.4798 10.7041 8.55977C12.5413 6.71977 14.698 5.75977 17.2541 5.75977C19.8102 5.75977 22.0468 6.71977 23.8041 8.55977C25.6413 10.3998 26.52 12.7198 26.52 15.3598C26.5999 17.9998 25.7212 20.2398 23.884 22.0798ZM20.4493 12.0798C19.5706 11.1998 18.5322 10.7198 17.334 10.7198C16.1358 10.7198 15.0974 11.1998 14.2188 12.0798C13.3401 12.9598 12.9407 14.0798 12.9407 15.2798C12.9407 16.5598 13.3401 17.5998 14.2188 18.4798C15.0974 19.3598 16.1358 19.8398 17.334 19.8398C18.5322 19.8398 19.5706 19.3598 20.4493 18.4798C21.3279 17.5998 21.7273 16.4798 21.7273 15.2798C21.7273 14.0798 21.3279 12.9598 20.4493 12.0798Z" fill="#147F52"/>
<path d="M23.5637 21.7594C21.7265 23.5994 19.5698 24.5594 17.0137 24.5594C15.4161 24.5594 13.9783 24.1594 12.6204 23.3594V33.6794C12.6204 33.6794 12.3009 33.5994 11.8216 33.4394C11.7417 33.4394 11.582 33.3594 11.5021 33.3594C11.4222 33.3594 11.4222 33.3594 11.3424 33.2794C11.1826 33.1994 11.0228 33.1994 10.8631 33.1194C10.3838 32.9594 9.98443 32.7994 9.98443 32.7994C9.98443 32.7994 8.62651 32.1594 8.46675 32.0794C8.30699 31.9994 8.22712 31.9194 8.14724 31.8394L8.06736 31.7594C7.82772 31.5994 7.66797 31.5194 7.66797 31.5194V14.9594C7.66797 12.3194 8.54663 10.0794 10.3838 8.15938C12.221 6.31938 14.3777 5.35938 16.9338 5.35938C19.4899 5.35938 21.7265 6.31938 23.4838 8.15938C25.321 9.99938 26.1997 12.3194 26.1997 14.9594C26.2796 17.5994 25.4009 19.9194 23.5637 21.7594ZM20.1289 11.7594C19.2503 10.8794 18.2119 10.3994 17.0137 10.3994C15.8155 10.3994 14.7771 10.8794 13.8985 11.7594C13.0198 12.6394 12.6204 13.7594 12.6204 14.9594C12.6204 16.2394 13.0198 17.2794 13.8985 18.1594C14.7771 19.0394 15.8155 19.5194 17.0137 19.5194C18.2119 19.5194 19.2503 19.0394 20.1289 18.1594C21.0076 17.2794 21.407 16.1594 21.407 14.9594C21.407 13.6794 20.9277 12.6394 20.1289 11.7594Z" fill="white"/>
<path d="M38.5 28.6394V6.63938C38.5 6.31938 38.6598 5.99938 38.8994 5.75938C39.139 5.51937 39.4585 5.35938 39.7781 5.35938H45.9287C48.0055 5.35938 49.6829 6.07937 51.1207 7.51937C52.5585 8.95937 53.2774 10.7194 53.2774 12.7194C53.2774 14.7194 52.5585 16.4794 51.1207 17.9194C49.6829 19.3594 47.9256 20.0794 45.9287 20.0794H42.2543C41.4555 20.0794 41.0561 19.6794 41.0561 18.8794V28.6394C41.0561 29.4394 40.6567 29.8394 39.8579 29.8394C38.8994 29.9194 38.5 29.5194 38.5 28.6394ZM40.8963 18.8794C40.8963 18.0794 41.2957 17.6794 42.0945 17.6794H45.7689C47.1268 17.6794 48.2451 17.1994 49.2835 16.2394C50.2421 15.2794 50.7213 14.1594 50.7213 12.7994C50.7213 11.4394 50.2421 10.3194 49.2835 9.35938C48.325 8.39938 47.1268 7.91937 45.7689 7.91937H40.8963V18.8794Z" fill="white"/>
<path d="M67.0983 28.6405C67.0983 29.4405 66.6989 29.8405 65.9001 29.8405C65.1013 29.8405 64.7019 29.4405 64.7019 28.6405C63.5837 29.4405 62.3855 29.8405 61.0276 29.8405C59.3501 29.8405 57.9123 29.2805 56.7141 28.0805C55.516 26.8805 54.877 25.4405 54.877 23.7605C54.877 22.0805 55.516 20.6405 56.7141 19.4405C57.9123 18.2405 59.3501 17.6005 61.0276 17.6005C62.3855 17.6005 63.5837 18.0005 64.7019 18.8005C64.7019 17.7605 64.3026 16.8805 63.5837 16.1605C62.8648 15.4405 61.9861 15.0405 60.9477 15.0405C60.2288 15.0405 59.5099 15.2805 58.791 15.7605C58.0721 16.2405 57.6727 16.4805 57.433 16.4805C57.1135 16.4805 56.794 16.3205 56.5544 16.0805C56.3148 15.8405 56.155 15.5205 56.155 15.2005C56.155 14.9605 56.3148 14.6405 56.5544 14.3205C57.5928 13.1205 59.0306 12.5605 60.8678 12.5605C62.5452 12.5605 63.983 13.1205 65.1812 14.3205C66.3794 15.5205 67.0184 16.9605 67.0184 18.6405L67.0983 28.6405ZM64.7019 23.7605C64.7019 22.7205 64.3026 21.8405 63.5837 21.1205C62.8648 20.4005 61.9861 20.0005 60.9477 20.0005C59.9093 20.0005 59.0306 20.4005 58.3117 21.1205C57.5928 21.8405 57.1934 22.7205 57.1934 23.7605C57.1934 24.8005 57.5928 25.6805 58.3117 26.4005C59.0306 27.1205 59.9093 27.5205 60.9477 27.5205C61.9861 27.5205 62.8648 27.1205 63.5837 26.4005C64.3026 25.6805 64.7019 24.8005 64.7019 23.7605Z" fill="white"/>
<path d="M87.547 21.2814C87.547 23.6814 86.7482 25.6814 85.0708 27.3614C83.3934 29.0414 81.3964 29.8414 79.0001 29.8414C76.6037 29.8414 74.6068 29.0414 72.9293 27.3614C71.2519 25.6814 70.4531 23.6814 70.4531 21.2814V6.64141C70.4531 5.84141 70.8525 5.44141 71.6513 5.44141C72.4501 5.44141 72.8495 5.84141 72.8495 6.64141V15.3614C74.5269 13.6814 76.6037 12.8014 79.0001 12.8014C81.3964 12.8014 83.3934 13.6014 85.0708 15.2814C86.7482 16.9614 87.547 18.9614 87.547 21.2814ZM85.1507 21.2814C85.1507 19.6014 84.5117 18.1614 83.3135 16.9614C82.1153 15.7614 80.6775 15.1214 79.0001 15.1214C77.3226 15.1214 75.8848 15.7614 74.6867 16.9614C73.4885 18.1614 72.8495 19.6014 72.8495 21.2814C72.8495 22.9614 73.4885 24.4014 74.6867 25.6014C75.8848 26.8014 77.3226 27.4414 79.0001 27.4414C80.6775 27.4414 82.1153 26.8014 83.3135 25.6014C84.5117 24.4814 85.1507 23.0414 85.1507 21.2814Z" fill="white"/>
<path d="M107.195 21.2814C107.195 23.6814 106.397 25.6814 104.719 27.3614C103.042 29.0414 101.045 29.8414 98.6485 29.8414C96.2522 29.8414 94.2552 29.0414 92.5778 27.3614C90.9003 25.6814 90.1016 23.6814 90.1016 21.2814V6.64141C90.1016 5.84141 90.501 5.44141 91.2997 5.44141C92.0985 5.44141 92.4979 5.84141 92.4979 6.64141V15.3614C94.1753 13.6814 96.2522 12.8014 98.6485 12.8014C101.045 12.8014 103.042 13.6014 104.719 15.2814C106.397 16.9614 107.195 18.9614 107.195 21.2814ZM104.719 21.2814C104.719 19.6014 104.08 18.1614 102.882 16.9614C101.684 15.7614 100.246 15.1214 98.5686 15.1214C96.8912 15.1214 95.4534 15.7614 94.2552 16.9614C93.057 18.1614 92.418 19.6014 92.418 21.2814C92.418 22.9614 93.057 24.4014 94.2552 25.6014C95.4534 26.8014 96.8912 27.4414 98.5686 27.4414C100.246 27.4414 101.684 26.8014 102.882 25.6014C104.16 24.4814 104.719 23.0414 104.719 21.2814Z" fill="white"/>
<path d="M115.823 28.6394C115.823 29.4394 115.423 29.8394 114.625 29.8394C113.267 29.8394 112.148 29.3594 111.19 28.3994C110.231 27.4394 109.752 26.3194 109.752 24.9594V6.55937C109.752 5.75937 110.151 5.35938 110.95 5.35938C111.749 5.35938 112.148 5.75937 112.148 6.55937V24.9594C112.148 25.5994 112.388 26.2394 112.867 26.7194C113.346 27.1994 113.906 27.4394 114.625 27.4394C115.343 27.4394 115.823 27.8394 115.823 28.6394Z" fill="white"/>
<path d="M130.52 31.1188C130.52 32.7988 129.881 34.2388 128.683 35.4388C127.485 36.6388 126.047 37.2787 124.37 37.2787C123.331 37.2787 122.293 37.0387 121.334 36.4787C120.296 35.9187 119.577 35.1988 119.098 34.2388C118.938 33.9988 118.938 33.7588 118.938 33.5988C118.938 33.2788 119.098 32.9588 119.337 32.7188C119.577 32.4788 119.896 32.3188 120.216 32.3188C120.535 32.3188 121.015 32.7188 121.734 33.5188C122.452 34.3188 123.331 34.7188 124.37 34.7188C125.408 34.7188 126.287 34.3987 127.006 33.6787C127.724 32.9587 128.124 32.0788 128.124 31.1188V28.6387C127.006 29.4387 125.807 29.8387 124.449 29.8387C122.772 29.8387 121.334 29.2787 120.136 28.0787C118.938 26.8787 118.299 25.4388 118.299 23.7588V13.9188C118.299 13.1188 118.698 12.7188 119.497 12.7188C120.296 12.7188 120.695 13.1188 120.695 13.9188V23.7588C120.695 24.7988 121.095 25.5988 121.813 26.3188C122.532 27.0388 123.411 27.4387 124.449 27.4387C125.488 27.4387 126.367 27.1188 127.085 26.3188C127.804 25.5988 128.204 24.7188 128.204 23.7588V13.9188C128.204 13.1188 128.603 12.7188 129.402 12.7188C130.201 12.7188 130.6 13.1188 130.6 13.9188L130.52 31.1188Z" fill="white"/>
</g>
<path d="M44.7677 45.9643C44.7677 46.2479 44.5789 46.437 44.2957 46.437H39.3867C39.2923 46.437 39.1035 46.437 39.0091 46.3425C38.9147 46.2479 38.8203 46.1534 38.8203 46.0588V37.8333C38.8203 37.7387 38.9147 37.6442 39.0091 37.5496C39.1035 37.4551 39.1979 37.4551 39.3867 37.4551H44.2957C44.5789 37.4551 44.7677 37.6442 44.7677 37.9278C44.7677 38.2115 44.5789 38.4005 44.2957 38.4005H39.8587V41.6151H43.2572C43.5405 41.6151 43.7293 41.8042 43.7293 42.0879C43.7293 42.3715 43.5405 42.5606 43.2572 42.5606H39.8587V45.7752H44.2957C44.5789 45.4916 44.7677 45.6807 44.7677 45.9643Z" fill="white"/>
<path d="M55.0575 45.9623C55.0575 46.246 54.8687 46.4351 54.5854 46.4351C54.3022 46.4351 54.1134 46.246 54.1134 45.9623V42.275C54.1134 41.8968 53.9246 41.6132 53.6414 41.3295C53.3582 41.0459 52.9806 40.9513 52.603 40.9513C52.2254 40.9513 51.8478 41.0459 51.5646 41.3295C51.2813 41.6132 51.0925 41.8968 51.0925 42.275V45.9623C51.0925 46.246 50.9037 46.4351 50.6205 46.4351C50.3373 46.4351 50.1485 46.246 50.1485 45.9623V42.275C50.1485 41.8968 49.9597 41.6132 49.6765 41.3295C49.3933 41.0459 49.0157 40.9513 48.6381 40.9513C48.2605 40.9513 47.8828 41.0459 47.5996 41.3295C47.3164 41.6132 47.1276 41.8968 47.1276 42.275V45.9623C47.1276 46.246 46.9388 46.4351 46.6556 46.4351C46.3724 46.4351 46.1836 46.246 46.1836 45.9623V40.4786C46.1836 40.195 46.3724 40.0059 46.6556 40.0059C46.9388 40.0059 47.1276 40.195 47.1276 40.4786C47.5996 40.195 48.0716 40.0059 48.6381 40.0059C49.4877 40.0059 50.0541 40.2895 50.6205 40.9513C51.0925 40.384 51.7534 40.0059 52.603 40.0059C53.2638 40.0059 53.8302 40.195 54.3022 40.6677C54.7742 41.1404 55.0575 41.6132 55.0575 42.275V45.9623Z" fill="white"/>
<path d="M61.0066 45.9646C61.0066 46.2483 60.8178 46.4374 60.5346 46.4374C60.2514 46.4374 60.0626 46.2483 60.0626 45.9646C59.5906 46.2483 59.1185 46.4374 58.5521 46.4374C57.8913 46.4374 57.3249 46.2483 56.8529 45.7755C56.3809 45.3028 56.0977 44.8301 56.0977 44.1682C56.0977 43.5064 56.3809 43.0337 56.8529 42.5609C57.3249 42.0882 57.8913 41.8991 58.5521 41.8991C59.1185 41.8991 59.5906 42.0882 60.0626 42.3718C60.0626 41.9937 59.8738 41.71 59.5906 41.4264C59.3073 41.1427 58.9297 41.0482 58.5521 41.0482C58.2689 41.0482 57.9857 41.1427 57.7025 41.3318C57.4193 41.5209 57.2305 41.6155 57.1361 41.6155C57.0417 41.6155 56.8529 41.6155 56.7585 41.5209C56.6641 41.4264 56.5697 41.3318 56.5697 41.1427C56.5697 41.0482 56.6641 40.9536 56.7585 40.8591C57.1361 40.3864 57.7025 40.1973 58.4577 40.1973C59.1185 40.1973 59.685 40.3864 60.157 40.8591C60.629 41.3318 60.9122 41.8046 60.9122 42.4664V45.9646H61.0066ZM60.0626 44.0737C60.0626 43.6955 59.8738 43.4119 59.5906 43.1282C59.3073 42.8446 58.9297 42.75 58.5521 42.75C58.1745 42.75 57.7969 42.8446 57.5137 43.1282C57.2305 43.4119 57.0417 43.6955 57.0417 44.0737C57.0417 44.4519 57.2305 44.7355 57.5137 45.0192C57.7969 45.3028 58.1745 45.3973 58.5521 45.3973C58.9297 45.3973 59.3073 45.3028 59.5906 45.0192C59.8738 44.8301 60.0626 44.4519 60.0626 44.0737Z" fill="white"/>
<path d="M64.0254 37.9275C64.0254 38.1165 63.931 38.3056 63.8366 38.4002C63.6478 38.4947 63.5534 38.5893 63.3646 38.5893C63.1758 38.5893 62.987 38.4947 62.7982 38.4002C62.6094 38.3056 62.6094 38.1165 62.6094 37.9275C62.6094 37.7384 62.7038 37.5493 62.7982 37.4547C62.987 37.3602 63.0814 37.2656 63.3646 37.2656C63.5534 37.2656 63.7422 37.3602 63.8366 37.4547C63.931 37.6438 64.0254 37.7384 64.0254 37.9275ZM63.8366 40.4802V45.9639C63.8366 46.2476 63.6478 46.4367 63.3646 46.4367C63.0814 46.4367 62.8926 46.2476 62.8926 45.9639V40.4802C62.8926 40.1966 63.0814 40.0075 63.3646 40.0075C63.6478 40.0075 63.8366 40.1966 63.8366 40.4802Z" fill="white"/>
<path d="M67.9916 45.9639C67.9916 46.2476 67.8028 46.4367 67.5196 46.4367C66.9531 46.4367 66.4811 46.2476 66.1035 45.8694C65.7259 45.4912 65.5371 45.113 65.5371 44.5457V37.7384C65.5371 37.4547 65.7259 37.2656 66.0091 37.2656C66.2923 37.2656 66.4811 37.4547 66.4811 37.7384V44.5457C66.4811 44.8294 66.5755 45.0185 66.7643 45.2076C66.9532 45.3967 67.142 45.4912 67.4252 45.4912C67.8972 45.4912 67.9916 45.6803 67.9916 45.9639Z" fill="white"/>
<path d="M83.0028 45.9639C83.0028 46.2476 82.814 46.4367 82.5308 46.4367C82.2476 46.4367 82.1532 46.3421 82.0588 46.0585L80.4539 39.2511L78.1883 44.2621C78.0939 44.5457 77.905 44.6403 77.7162 44.6403C77.5274 44.6403 77.3386 44.5457 77.2442 44.2621L74.9786 39.2511L73.3737 46.0585C73.2793 46.3421 73.1849 46.4367 72.9017 46.4367C72.5241 46.4367 72.4297 46.2476 72.4297 45.9639V45.8694L74.4121 37.7384C74.5065 37.4547 74.601 37.2656 74.8842 37.2656C75.073 37.2656 75.2618 37.3602 75.3562 37.6438L77.8106 42.9384L80.2651 37.6438C80.3595 37.4547 80.5483 37.2656 80.7371 37.2656C81.0203 37.2656 81.2091 37.4547 81.2091 37.7384L83.1916 45.8694C83.0028 45.8694 83.0028 45.8694 83.0028 45.9639Z" fill="white"/>
<path d="M88.6648 45.9646C88.6648 46.2483 88.476 46.4374 88.1928 46.4374C87.9096 46.4374 87.7208 46.2483 87.7208 45.9646C87.2488 46.2483 86.7767 46.4374 86.2103 46.4374C85.5495 46.4374 84.9831 46.2483 84.5111 45.7755C84.0391 45.3028 83.7559 44.8301 83.7559 44.1682C83.7559 43.5064 84.0391 43.0337 84.5111 42.5609C84.9831 42.0882 85.5495 41.8991 86.2103 41.8991C86.7767 41.8991 87.2488 42.0882 87.7208 42.3718C87.7208 41.9937 87.532 41.71 87.2488 41.4264C86.9656 41.1427 86.5879 41.0482 86.2103 41.0482C85.9271 41.0482 85.6439 41.1427 85.3607 41.3318C85.0775 41.5209 84.8887 41.6155 84.7943 41.6155C84.6999 41.6155 84.5111 41.6155 84.4167 41.5209C84.3223 41.4264 84.2279 41.3318 84.2279 41.1427C84.2279 41.0482 84.3223 40.9536 84.4167 40.8591C84.7943 40.3864 85.3607 40.1973 86.1159 40.1973C86.7767 40.1973 87.3432 40.3864 87.8152 40.8591C88.2872 41.3318 88.5704 41.8046 88.5704 42.4664V45.9646H88.6648ZM87.7208 44.0737C87.7208 43.6955 87.532 43.4119 87.2488 43.1282C86.9656 42.8446 86.5879 42.75 86.2103 42.75C85.8327 42.75 85.4551 42.8446 85.1719 43.1282C84.8887 43.4119 84.6999 43.6955 84.6999 44.0737C84.6999 44.4519 84.8887 44.7355 85.1719 45.0192C85.4551 45.3028 85.8327 45.3973 86.2103 45.3973C86.5879 45.3973 86.9656 45.3028 87.2488 45.0192C87.532 44.8301 87.7208 44.4519 87.7208 44.0737Z" fill="white"/>
<path d="M94.1407 41.142C94.1407 41.2366 94.0463 41.3311 93.9519 41.4257C93.8575 41.5202 93.7631 41.5202 93.5743 41.5202C93.4799 41.5202 93.2911 41.4257 93.1023 41.142C92.9135 40.9529 92.6302 40.7638 92.347 40.7638C92.0638 40.7638 91.875 40.8584 91.6862 41.0475C91.4974 41.2366 91.403 41.4257 91.403 41.7093V45.7748C91.403 46.0585 91.2142 46.2475 90.931 46.2475C90.6478 46.2475 90.459 46.0585 90.459 45.7748V40.2911C90.459 40.0075 90.6478 39.8184 90.931 39.8184C91.1198 39.8184 91.3086 39.9129 91.403 40.102C91.6862 39.9129 92.0638 39.8184 92.4414 39.8184C92.8191 39.8184 93.1023 39.9129 93.3855 40.102C93.6687 40.2911 93.9519 40.4802 94.1407 40.7638C94.1407 41.0475 94.1407 41.142 94.1407 41.142Z" fill="white"/>
<path d="M100.561 45.9608C100.561 46.0554 100.467 46.1499 100.372 46.2445C100.278 46.339 100.184 46.339 99.9949 46.339C99.8061 46.339 99.7117 46.339 99.6173 46.2445L96.6908 43.5026C96.5964 43.4081 96.5964 43.3135 96.5964 43.219V45.8663C96.5964 46.1499 96.4076 46.339 96.1244 46.339C95.8411 46.339 95.6523 46.1499 95.6523 45.8663V37.6407C95.6523 37.3571 95.8411 37.168 96.1244 37.168C96.4076 37.168 96.5964 37.3571 96.5964 37.6407V43.0299C96.5964 42.9353 96.6908 42.8408 96.6908 42.7462L99.6173 40.0044C99.7117 39.9098 99.8061 39.9098 99.9949 39.9098C100.184 39.9098 100.278 40.0044 100.372 40.0989C100.467 40.1935 100.561 40.288 100.561 40.3826C100.561 40.4771 100.467 40.5717 100.372 40.6662L97.8236 43.0299L100.372 45.4881C100.467 45.6772 100.561 45.7717 100.561 45.9608Z" fill="white"/>
<path d="M107.736 44.5441C107.736 44.6387 107.736 44.7332 107.642 44.8278C107.359 45.3005 106.981 45.6787 106.415 45.9623C105.848 46.246 105.282 46.4351 104.716 46.4351C103.772 46.4351 102.922 46.1514 102.261 45.4896C101.6 44.8278 101.223 44.0714 101.223 43.2205C101.223 42.3695 101.6 41.6132 102.261 40.9513C102.922 40.2895 103.772 40.0059 104.716 40.0059C105.093 40.0059 105.376 40.1004 105.754 40.195C106.132 40.2895 106.604 40.5731 106.981 40.8568C107.453 41.235 107.736 41.5186 107.736 41.8968C107.736 42.0859 107.642 42.1804 107.453 42.275L102.828 44.7332C103.3 45.2059 103.96 45.4896 104.621 45.4896C105.376 45.4896 106.037 45.2059 106.415 44.7332C106.509 44.6387 106.604 44.5441 106.698 44.355C106.792 44.1659 106.981 44.0714 107.076 44.0714C107.17 44.0714 107.359 44.0714 107.453 44.1659C107.736 44.355 107.736 44.4496 107.736 44.5441ZM106.604 41.7077C106.132 41.235 105.471 40.9513 104.81 40.9513C104.149 40.9513 103.583 41.1404 103.111 41.6132C102.639 42.0859 102.355 42.5586 102.355 43.2205C102.355 43.5041 102.355 43.6932 102.45 43.9768L106.604 41.7077Z" fill="white"/>
<path d="M113.494 45.4908C113.494 45.7745 113.305 46.0581 113.022 46.1527C112.739 46.2472 112.456 46.3418 112.078 46.3418C111.512 46.3418 111.04 46.1527 110.662 45.7745C110.285 45.3963 110.096 45.0181 110.096 44.4508V40.7635H109.152C108.868 40.7635 108.68 40.5744 108.68 40.2908C108.68 40.0071 108.868 39.818 109.152 39.818H110.096V37.5489C110.096 37.2653 110.285 37.0762 110.568 37.0762C110.851 37.0762 111.04 37.2653 111.04 37.5489V39.818H111.984C112.267 39.818 112.456 40.0071 112.456 40.2908C112.456 40.5744 112.267 40.7635 111.984 40.7635H111.04V44.4508C111.04 44.7345 111.134 44.9236 111.323 45.1127C111.512 45.3018 111.701 45.3963 111.984 45.3963C112.173 45.3963 112.456 45.3018 112.645 45.2072C112.833 45.0181 113.022 45.0181 113.117 45.0181C113.4 45.0181 113.494 45.2072 113.494 45.4908Z" fill="white"/>
<path d="M116.137 37.9275C116.137 38.1165 116.042 38.3056 115.948 38.4002C115.759 38.4947 115.665 38.5893 115.476 38.5893C115.287 38.5893 115.098 38.4947 114.91 38.4002C114.721 38.3056 114.721 38.1165 114.721 37.9275C114.721 37.7384 114.815 37.5493 114.91 37.4547C115.098 37.3602 115.193 37.2656 115.476 37.2656C115.665 37.2656 115.854 37.3602 115.948 37.4547C116.042 37.6438 116.137 37.7384 116.137 37.9275ZM115.948 40.4802V45.9639C115.948 46.2476 115.759 46.4367 115.476 46.4367C115.193 46.4367 115.004 46.2476 115.004 45.9639V40.4802C115.004 40.1966 115.193 40.0075 115.476 40.0075C115.759 40.0075 115.948 40.1966 115.948 40.4802Z" fill="white"/>
<path d="M122.932 45.9623C122.932 46.246 122.744 46.4351 122.46 46.4351C122.177 46.4351 121.988 46.246 121.988 45.9623V42.275C121.988 41.8968 121.8 41.6132 121.516 41.3295C121.233 41.0459 120.856 40.9513 120.478 40.9513C120.1 40.9513 119.723 41.0459 119.439 41.3295C119.156 41.6132 118.967 41.8968 118.967 42.275V45.9623C118.967 46.246 118.779 46.4351 118.495 46.4351C118.212 46.4351 118.023 46.246 118.023 45.9623V40.4786C118.023 40.195 118.212 40.0059 118.495 40.0059C118.779 40.0059 118.967 40.195 118.967 40.4786C119.439 40.195 119.911 40.0059 120.478 40.0059C121.139 40.0059 121.705 40.195 122.177 40.6677C122.649 41.1404 122.932 41.6132 122.932 42.275V45.9623Z" fill="white"/>
<path d="M129.92 40.4786C129.92 40.6677 129.826 40.8568 129.542 40.9513C129.448 40.9513 129.259 40.9513 128.882 40.9513C129.165 41.3295 129.354 41.8023 129.354 42.275C129.354 43.0314 129.07 43.5986 128.41 44.0714C129.354 44.6387 129.826 45.395 129.826 46.4351C129.826 47.1914 129.542 47.8533 128.976 48.326C128.41 48.8933 127.749 49.0824 126.899 49.0824C126.05 49.0824 125.389 48.7987 124.822 48.326C124.256 47.7587 123.973 47.1914 123.973 46.4351C123.973 46.1514 124.161 45.9623 124.445 45.9623C124.728 45.9623 124.917 46.1514 124.917 46.4351C124.917 46.9078 125.105 47.3805 125.483 47.7587C125.861 48.1369 126.333 48.326 126.899 48.326C127.466 48.326 127.938 48.1369 128.315 47.7587C128.693 47.3805 128.882 47.0023 128.882 46.4351C128.882 45.9623 128.693 45.4896 128.315 45.1114C127.938 44.7332 127.466 44.5441 126.899 44.5441C126.238 44.5441 125.672 44.355 125.2 43.8823C124.728 43.4096 124.445 42.9368 124.445 42.275C124.445 41.6132 124.728 41.1404 125.2 40.6677C125.672 40.195 126.238 40.0059 126.899 40.0059H129.354C129.731 40.0059 129.92 40.195 129.92 40.4786ZM128.41 42.275C128.41 41.8968 128.221 41.6132 127.938 41.3295C127.654 41.0459 127.277 40.9513 126.899 40.9513C126.522 40.9513 126.144 41.0459 125.861 41.3295C125.578 41.6132 125.389 41.8968 125.389 42.275C125.389 42.6532 125.578 42.9368 125.861 43.2205C126.144 43.5041 126.522 43.5986 126.899 43.5986C127.277 43.5986 127.654 43.5041 127.938 43.2205C128.315 43.0314 128.41 42.6532 128.41 42.275Z" fill="white"/>
<path d="M44.7677 45.9643C44.7677 46.2479 44.5789 46.437 44.2957 46.437H39.3867C39.2923 46.437 39.1035 46.437 39.0091 46.3425C38.9147 46.2479 38.8203 46.1534 38.8203 46.0588V37.8333C38.8203 37.7387 38.9147 37.6442 39.0091 37.5496C39.1035 37.4551 39.1979 37.4551 39.3867 37.4551H44.2957C44.5789 37.4551 44.7677 37.6442 44.7677 37.9278C44.7677 38.2115 44.5789 38.4005 44.2957 38.4005H39.8587V41.6151H43.2572C43.5405 41.6151 43.7293 41.8042 43.7293 42.0879C43.7293 42.3715 43.5405 42.5606 43.2572 42.5606H39.8587V45.7752H44.2957C44.5789 45.4916 44.7677 45.6807 44.7677 45.9643Z" stroke="white" stroke-width="0.25"/>
<path d="M55.0575 45.9623C55.0575 46.246 54.8687 46.4351 54.5854 46.4351C54.3022 46.4351 54.1134 46.246 54.1134 45.9623V42.275C54.1134 41.8968 53.9246 41.6132 53.6414 41.3295C53.3582 41.0459 52.9806 40.9513 52.603 40.9513C52.2254 40.9513 51.8478 41.0459 51.5646 41.3295C51.2813 41.6132 51.0925 41.8968 51.0925 42.275V45.9623C51.0925 46.246 50.9037 46.4351 50.6205 46.4351C50.3373 46.4351 50.1485 46.246 50.1485 45.9623V42.275C50.1485 41.8968 49.9597 41.6132 49.6765 41.3295C49.3933 41.0459 49.0157 40.9513 48.6381 40.9513C48.2605 40.9513 47.8828 41.0459 47.5996 41.3295C47.3164 41.6132 47.1276 41.8968 47.1276 42.275V45.9623C47.1276 46.246 46.9388 46.4351 46.6556 46.4351C46.3724 46.4351 46.1836 46.246 46.1836 45.9623V40.4786C46.1836 40.195 46.3724 40.0059 46.6556 40.0059C46.9388 40.0059 47.1276 40.195 47.1276 40.4786C47.5996 40.195 48.0716 40.0059 48.6381 40.0059C49.4877 40.0059 50.0541 40.2895 50.6205 40.9513C51.0925 40.384 51.7534 40.0059 52.603 40.0059C53.2638 40.0059 53.8302 40.195 54.3022 40.6677C54.7742 41.1404 55.0575 41.6132 55.0575 42.275V45.9623Z" stroke="white" stroke-width="0.25"/>
<path d="M61.0066 45.9646C61.0066 46.2483 60.8178 46.4374 60.5346 46.4374C60.2514 46.4374 60.0626 46.2483 60.0626 45.9646C59.5906 46.2483 59.1185 46.4374 58.5521 46.4374C57.8913 46.4374 57.3249 46.2483 56.8529 45.7755C56.3809 45.3028 56.0977 44.8301 56.0977 44.1682C56.0977 43.5064 56.3809 43.0337 56.8529 42.5609C57.3249 42.0882 57.8913 41.8991 58.5521 41.8991C59.1185 41.8991 59.5906 42.0882 60.0626 42.3718C60.0626 41.9937 59.8738 41.71 59.5906 41.4264C59.3073 41.1427 58.9297 41.0482 58.5521 41.0482C58.2689 41.0482 57.9857 41.1427 57.7025 41.3318C57.4193 41.5209 57.2305 41.6155 57.1361 41.6155C57.0417 41.6155 56.8529 41.6155 56.7585 41.5209C56.6641 41.4264 56.5697 41.3318 56.5697 41.1427C56.5697 41.0482 56.6641 40.9536 56.7585 40.8591C57.1361 40.3864 57.7025 40.1973 58.4577 40.1973C59.1185 40.1973 59.685 40.3864 60.157 40.8591C60.629 41.3318 60.9122 41.8046 60.9122 42.4664V45.9646H61.0066ZM60.0626 44.0737C60.0626 43.6955 59.8738 43.4119 59.5906 43.1282C59.3073 42.8446 58.9297 42.75 58.5521 42.75C58.1745 42.75 57.7969 42.8446 57.5137 43.1282C57.2305 43.4119 57.0417 43.6955 57.0417 44.0737C57.0417 44.4519 57.2305 44.7355 57.5137 45.0192C57.7969 45.3028 58.1745 45.3973 58.5521 45.3973C58.9297 45.3973 59.3073 45.3028 59.5906 45.0192C59.8738 44.8301 60.0626 44.4519 60.0626 44.0737Z" stroke="white" stroke-width="0.25"/>
<path d="M64.0254 37.9275C64.0254 38.1165 63.931 38.3056 63.8366 38.4002C63.6478 38.4947 63.5534 38.5893 63.3646 38.5893C63.1758 38.5893 62.987 38.4947 62.7982 38.4002C62.6094 38.3056 62.6094 38.1165 62.6094 37.9275C62.6094 37.7384 62.7038 37.5493 62.7982 37.4547C62.987 37.3602 63.0814 37.2656 63.3646 37.2656C63.5534 37.2656 63.7422 37.3602 63.8366 37.4547C63.931 37.6438 64.0254 37.7384 64.0254 37.9275ZM63.8366 40.4802V45.9639C63.8366 46.2476 63.6478 46.4367 63.3646 46.4367C63.0814 46.4367 62.8926 46.2476 62.8926 45.9639V40.4802C62.8926 40.1966 63.0814 40.0075 63.3646 40.0075C63.6478 40.0075 63.8366 40.1966 63.8366 40.4802Z" stroke="white" stroke-width="0.25"/>
<path d="M67.9916 45.9639C67.9916 46.2476 67.8028 46.4367 67.5196 46.4367C66.9531 46.4367 66.4811 46.2476 66.1035 45.8694C65.7259 45.4912 65.5371 45.113 65.5371 44.5457V37.7384C65.5371 37.4547 65.7259 37.2656 66.0091 37.2656C66.2923 37.2656 66.4811 37.4547 66.4811 37.7384V44.5457C66.4811 44.8294 66.5755 45.0185 66.7643 45.2076C66.9532 45.3967 67.142 45.4912 67.4252 45.4912C67.8972 45.4912 67.9916 45.6803 67.9916 45.9639Z" stroke="white" stroke-width="0.25"/>
<path d="M83.0028 45.9639C83.0028 46.2476 82.814 46.4367 82.5308 46.4367C82.2476 46.4367 82.1532 46.3421 82.0588 46.0585L80.4539 39.2511L78.1883 44.2621C78.0939 44.5457 77.905 44.6403 77.7162 44.6403C77.5274 44.6403 77.3386 44.5457 77.2442 44.2621L74.9786 39.2511L73.3737 46.0585C73.2793 46.3421 73.1849 46.4367 72.9017 46.4367C72.5241 46.4367 72.4297 46.2476 72.4297 45.9639V45.8694L74.4121 37.7384C74.5065 37.4547 74.601 37.2656 74.8842 37.2656C75.073 37.2656 75.2618 37.3602 75.3562 37.6438L77.8106 42.9384L80.2651 37.6438C80.3595 37.4547 80.5483 37.2656 80.7371 37.2656C81.0203 37.2656 81.2091 37.4547 81.2091 37.7384L83.1916 45.8694C83.0028 45.8694 83.0028 45.8694 83.0028 45.9639Z" stroke="white" stroke-width="0.25"/>
<path d="M88.6648 45.9646C88.6648 46.2483 88.476 46.4374 88.1928 46.4374C87.9096 46.4374 87.7208 46.2483 87.7208 45.9646C87.2488 46.2483 86.7767 46.4374 86.2103 46.4374C85.5495 46.4374 84.9831 46.2483 84.5111 45.7755C84.0391 45.3028 83.7559 44.8301 83.7559 44.1682C83.7559 43.5064 84.0391 43.0337 84.5111 42.5609C84.9831 42.0882 85.5495 41.8991 86.2103 41.8991C86.7767 41.8991 87.2488 42.0882 87.7208 42.3718C87.7208 41.9937 87.532 41.71 87.2488 41.4264C86.9656 41.1427 86.5879 41.0482 86.2103 41.0482C85.9271 41.0482 85.6439 41.1427 85.3607 41.3318C85.0775 41.5209 84.8887 41.6155 84.7943 41.6155C84.6999 41.6155 84.5111 41.6155 84.4167 41.5209C84.3223 41.4264 84.2279 41.3318 84.2279 41.1427C84.2279 41.0482 84.3223 40.9536 84.4167 40.8591C84.7943 40.3864 85.3607 40.1973 86.1159 40.1973C86.7767 40.1973 87.3432 40.3864 87.8152 40.8591C88.2872 41.3318 88.5704 41.8046 88.5704 42.4664V45.9646H88.6648ZM87.7208 44.0737C87.7208 43.6955 87.532 43.4119 87.2488 43.1282C86.9656 42.8446 86.5879 42.75 86.2103 42.75C85.8327 42.75 85.4551 42.8446 85.1719 43.1282C84.8887 43.4119 84.6999 43.6955 84.6999 44.0737C84.6999 44.4519 84.8887 44.7355 85.1719 45.0192C85.4551 45.3028 85.8327 45.3973 86.2103 45.3973C86.5879 45.3973 86.9656 45.3028 87.2488 45.0192C87.532 44.8301 87.7208 44.4519 87.7208 44.0737Z" stroke="white" stroke-width="0.25"/>
<path d="M94.1407 41.142C94.1407 41.2366 94.0463 41.3311 93.9519 41.4257C93.8575 41.5202 93.7631 41.5202 93.5743 41.5202C93.4799 41.5202 93.2911 41.4257 93.1023 41.142C92.9135 40.9529 92.6302 40.7638 92.347 40.7638C92.0638 40.7638 91.875 40.8584 91.6862 41.0475C91.4974 41.2366 91.403 41.4257 91.403 41.7093V45.7748C91.403 46.0585 91.2142 46.2475 90.931 46.2475C90.6478 46.2475 90.459 46.0585 90.459 45.7748V40.2911C90.459 40.0075 90.6478 39.8184 90.931 39.8184C91.1198 39.8184 91.3086 39.9129 91.403 40.102C91.6862 39.9129 92.0638 39.8184 92.4414 39.8184C92.8191 39.8184 93.1023 39.9129 93.3855 40.102C93.6687 40.2911 93.9519 40.4802 94.1407 40.7638C94.1407 41.0475 94.1407 41.142 94.1407 41.142Z" stroke="white" stroke-width="0.25"/>
<path d="M100.561 45.9608C100.561 46.0554 100.467 46.1499 100.372 46.2445C100.278 46.339 100.184 46.339 99.9949 46.339C99.8061 46.339 99.7117 46.339 99.6173 46.2445L96.6908 43.5026C96.5964 43.4081 96.5964 43.3135 96.5964 43.219V45.8663C96.5964 46.1499 96.4076 46.339 96.1244 46.339C95.8411 46.339 95.6523 46.1499 95.6523 45.8663V37.6407C95.6523 37.3571 95.8411 37.168 96.1244 37.168C96.4076 37.168 96.5964 37.3571 96.5964 37.6407V43.0299C96.5964 42.9353 96.6908 42.8408 96.6908 42.7462L99.6173 40.0044C99.7117 39.9098 99.8061 39.9098 99.9949 39.9098C100.184 39.9098 100.278 40.0044 100.372 40.0989C100.467 40.1935 100.561 40.288 100.561 40.3826C100.561 40.4771 100.467 40.5717 100.372 40.6662L97.8236 43.0299L100.372 45.4881C100.467 45.6772 100.561 45.7717 100.561 45.9608Z" stroke="white" stroke-width="0.25"/>
<path d="M107.736 44.5441C107.736 44.6387 107.736 44.7332 107.642 44.8278C107.359 45.3005 106.981 45.6787 106.415 45.9623C105.848 46.246 105.282 46.4351 104.716 46.4351C103.772 46.4351 102.922 46.1514 102.261 45.4896C101.6 44.8278 101.223 44.0714 101.223 43.2205C101.223 42.3695 101.6 41.6132 102.261 40.9513C102.922 40.2895 103.772 40.0059 104.716 40.0059C105.093 40.0059 105.376 40.1004 105.754 40.195C106.132 40.2895 106.604 40.5731 106.981 40.8568C107.453 41.235 107.736 41.5186 107.736 41.8968C107.736 42.0859 107.642 42.1804 107.453 42.275L102.828 44.7332C103.3 45.2059 103.96 45.4896 104.621 45.4896C105.376 45.4896 106.037 45.2059 106.415 44.7332C106.509 44.6387 106.604 44.5441 106.698 44.355C106.792 44.1659 106.981 44.0714 107.076 44.0714C107.17 44.0714 107.359 44.0714 107.453 44.1659C107.736 44.355 107.736 44.4496 107.736 44.5441ZM106.604 41.7077C106.132 41.235 105.471 40.9513 104.81 40.9513C104.149 40.9513 103.583 41.1404 103.111 41.6132C102.639 42.0859 102.355 42.5586 102.355 43.2205C102.355 43.5041 102.355 43.6932 102.45 43.9768L106.604 41.7077Z" stroke="white" stroke-width="0.25"/>
<path d="M113.494 45.4908C113.494 45.7745 113.305 46.0581 113.022 46.1527C112.739 46.2472 112.456 46.3418 112.078 46.3418C111.512 46.3418 111.04 46.1527 110.662 45.7745C110.285 45.3963 110.096 45.0181 110.096 44.4508V40.7635H109.152C108.868 40.7635 108.68 40.5744 108.68 40.2908C108.68 40.0071 108.868 39.818 109.152 39.818H110.096V37.5489C110.096 37.2653 110.285 37.0762 110.568 37.0762C110.851 37.0762 111.04 37.2653 111.04 37.5489V39.818H111.984C112.267 39.818 112.456 40.0071 112.456 40.2908C112.456 40.5744 112.267 40.7635 111.984 40.7635H111.04V44.4508C111.04 44.7345 111.134 44.9236 111.323 45.1127C111.512 45.3018 111.701 45.3963 111.984 45.3963C112.173 45.3963 112.456 45.3018 112.645 45.2072C112.833 45.0181 113.022 45.0181 113.117 45.0181C113.4 45.0181 113.494 45.2072 113.494 45.4908Z" stroke="white" stroke-width="0.25"/>
<path d="M116.137 37.9275C116.137 38.1165 116.042 38.3056 115.948 38.4002C115.759 38.4947 115.665 38.5893 115.476 38.5893C115.287 38.5893 115.098 38.4947 114.91 38.4002C114.721 38.3056 114.721 38.1165 114.721 37.9275C114.721 37.7384 114.815 37.5493 114.91 37.4547C115.098 37.3602 115.193 37.2656 115.476 37.2656C115.665 37.2656 115.854 37.3602 115.948 37.4547C116.042 37.6438 116.137 37.7384 116.137 37.9275ZM115.948 40.4802V45.9639C115.948 46.2476 115.759 46.4367 115.476 46.4367C115.193 46.4367 115.004 46.2476 115.004 45.9639V40.4802C115.004 40.1966 115.193 40.0075 115.476 40.0075C115.759 40.0075 115.948 40.1966 115.948 40.4802Z" stroke="white" stroke-width="0.25"/>
<path d="M122.932 45.9623C122.932 46.246 122.744 46.4351 122.46 46.4351C122.177 46.4351 121.988 46.246 121.988 45.9623V42.275C121.988 41.8968 121.8 41.6132 121.516 41.3295C121.233 41.0459 120.856 40.9513 120.478 40.9513C120.1 40.9513 119.723 41.0459 119.439 41.3295C119.156 41.6132 118.967 41.8968 118.967 42.275V45.9623C118.967 46.246 118.779 46.4351 118.495 46.4351C118.212 46.4351 118.023 46.246 118.023 45.9623V40.4786C118.023 40.195 118.212 40.0059 118.495 40.0059C118.779 40.0059 118.967 40.195 118.967 40.4786C119.439 40.195 119.911 40.0059 120.478 40.0059C121.139 40.0059 121.705 40.195 122.177 40.6677C122.649 41.1404 122.932 41.6132 122.932 42.275V45.9623Z" stroke="white" stroke-width="0.25"/>
<path d="M129.92 40.4786C129.92 40.6677 129.826 40.8568 129.542 40.9513C129.448 40.9513 129.259 40.9513 128.882 40.9513C129.165 41.3295 129.354 41.8023 129.354 42.275C129.354 43.0314 129.07 43.5986 128.41 44.0714C129.354 44.6387 129.826 45.395 129.826 46.4351C129.826 47.1914 129.542 47.8533 128.976 48.326C128.41 48.8933 127.749 49.0824 126.899 49.0824C126.05 49.0824 125.389 48.7987 124.822 48.326C124.256 47.7587 123.973 47.1914 123.973 46.4351C123.973 46.1514 124.161 45.9623 124.445 45.9623C124.728 45.9623 124.917 46.1514 124.917 46.4351C124.917 46.9078 125.105 47.3805 125.483 47.7587C125.861 48.1369 126.333 48.326 126.899 48.326C127.466 48.326 127.938 48.1369 128.315 47.7587C128.693 47.3805 128.882 47.0023 128.882 46.4351C128.882 45.9623 128.693 45.4896 128.315 45.1114C127.938 44.7332 127.466 44.5441 126.899 44.5441C126.238 44.5441 125.672 44.355 125.2 43.8823C124.728 43.4096 124.445 42.9368 124.445 42.275C124.445 41.6132 124.728 41.1404 125.2 40.6677C125.672 40.195 126.238 40.0059 126.899 40.0059H129.354C129.731 40.0059 129.92 40.195 129.92 40.4786ZM128.41 42.275C128.41 41.8968 128.221 41.6132 127.938 41.3295C127.654 41.0459 127.277 40.9513 126.899 40.9513C126.522 40.9513 126.144 41.0459 125.861 41.3295C125.578 41.6132 125.389 41.8968 125.389 42.275C125.389 42.6532 125.578 42.9368 125.861 43.2205C126.144 43.5041 126.522 43.5986 126.899 43.5986C127.277 43.5986 127.654 43.5041 127.938 43.2205C128.315 43.0314 128.41 42.6532 128.41 42.275Z" stroke="white" stroke-width="0.25"/>
</svg>
