<svg width="131" height="50" viewBox="0 0 131 50" fill="none" xmlns="http://www.w3.org/2000/svg">
<mask id="mask0_138_51" style="mask-type:luminance" maskUnits="userSpaceOnUse" x="0" y="0" width="131" height="38">
<path d="M130.601 0.160156H0.0800781V37.2802H130.601V0.160156Z" fill="white"/>
</mask>
<g mask="url(#mask0_138_51)">
<path d="M34.2679 17.2002C34.2679 26.6402 26.5996 34.3202 17.174 34.3202C14.2185 34.3202 11.4228 33.6002 9.02642 32.2402C3.67459 29.3602 0.0800781 23.6802 0.0800781 17.2002C0.0800781 7.84016 7.74837 0.160156 17.174 0.160156C26.5996 0.160156 34.2679 7.84016 34.2679 17.2002Z" fill="#20B276"/>
<path d="M23.9641 22.0798C22.1269 23.9198 19.9702 24.8798 17.4141 24.8798C15.8165 24.8798 14.3787 24.6398 13.0208 23.8398V33.7598H12.861H12.7812L12.7013 33.6798L12.6214 33.5998L12.5415 33.5198L12.6214 33.4398L8.06836 28.0798V15.3598C8.06836 12.7198 8.94702 10.4798 10.7842 8.55977C12.6214 6.71977 14.7781 5.75977 17.3342 5.75977C19.8903 5.75977 22.1269 6.71977 23.8842 8.55977C25.7214 10.3998 26.6001 12.7198 26.6001 15.3598C26.6799 17.9998 25.8013 20.2398 23.9641 22.0798ZM20.5293 12.0798C19.6507 11.1998 18.6123 10.7198 17.4141 10.7198C16.2159 10.7198 15.1775 11.1998 14.2988 12.0798C13.4202 12.9598 13.0208 14.0798 13.0208 15.2798C13.0208 16.5598 13.4202 17.5998 14.2988 18.4798C15.1775 19.3598 16.2159 19.8398 17.4141 19.8398C18.6123 19.8398 19.6507 19.3598 20.5293 18.4798C21.408 17.5998 21.8074 16.4798 21.8074 15.2798C21.8074 14.0798 21.408 12.9598 20.5293 12.0798Z" fill="#147F52"/>
<path d="M23.6438 21.7594C21.8066 23.5994 19.6499 24.5594 17.0938 24.5594C15.4962 24.5594 14.0584 24.1594 12.7005 23.3594V33.6794C12.7005 33.6794 12.381 33.5994 11.9017 33.4394C11.8218 33.4394 11.6621 33.3594 11.5822 33.3594C11.5023 33.3594 11.5023 33.3594 11.4224 33.2794C11.2627 33.1994 11.1029 33.1994 10.9432 33.1194C10.4639 32.9594 10.0645 32.7994 10.0645 32.7994C10.0645 32.7994 8.70658 32.1594 8.54683 32.0794C8.38707 31.9994 8.30719 31.9194 8.22732 31.8394L8.14744 31.7594C7.9078 31.5994 7.74805 31.5194 7.74805 31.5194V14.9594C7.74805 12.3194 8.62671 10.0794 10.4639 8.15938C12.3011 6.31938 14.4578 5.35938 17.0139 5.35938C19.57 5.35938 21.8066 6.31938 23.5639 8.15938C25.4011 9.99938 26.2798 12.3194 26.2798 14.9594C26.3596 17.5994 25.481 19.9194 23.6438 21.7594ZM20.209 11.7594C19.3304 10.8794 18.2919 10.3994 17.0938 10.3994C15.8956 10.3994 14.8572 10.8794 13.9785 11.7594C13.0999 12.6394 12.7005 13.7594 12.7005 14.9594C12.7005 16.2394 13.0999 17.2794 13.9785 18.1594C14.8572 19.0394 15.8956 19.5194 17.0938 19.5194C18.2919 19.5194 19.3304 19.0394 20.209 18.1594C21.0877 17.2794 21.4871 16.1594 21.4871 14.9594C21.4871 13.6794 21.0078 12.6394 20.209 11.7594Z" fill="white"/>
<path d="M38.582 28.6394V6.63938C38.582 6.31938 38.7418 5.99938 38.9814 5.75938C39.2211 5.51937 39.5406 5.35938 39.8601 5.35938H46.0107C48.0875 5.35938 49.765 6.07937 51.2028 7.51937C52.6406 8.95937 53.3595 10.7194 53.3595 12.7194C53.3595 14.7194 52.6406 16.4794 51.2028 17.9194C49.765 19.3594 48.0076 20.0794 46.0107 20.0794H42.3363C41.5375 20.0794 41.1381 19.6794 41.1381 18.8794V28.6394C41.1381 29.4394 40.7387 29.8394 39.94 29.8394C38.9814 29.9194 38.582 29.5194 38.582 28.6394ZM40.9784 18.8794C40.9784 18.0794 41.3778 17.6794 42.1765 17.6794H45.8509C47.2089 17.6794 48.3272 17.1994 49.3656 16.2394C50.3241 15.2794 50.8034 14.1594 50.8034 12.7994C50.8034 11.4394 50.3241 10.3194 49.3656 9.35938C48.407 8.39938 47.2089 7.91937 45.8509 7.91937H40.9784V18.8794Z" fill="#3B3938"/>
<path d="M67.1784 28.6405C67.1784 29.4405 66.779 29.8405 65.9802 29.8405C65.1814 29.8405 64.782 29.4405 64.782 28.6405C63.6637 29.4405 62.4656 29.8405 61.1076 29.8405C59.4302 29.8405 57.9924 29.2805 56.7942 28.0805C55.5961 26.8805 54.957 25.4405 54.957 23.7605C54.957 22.0805 55.5961 20.6405 56.7942 19.4405C57.9924 18.2405 59.4302 17.6005 61.1076 17.6005C62.4656 17.6005 63.6637 18.0005 64.782 18.8005C64.782 17.7605 64.3826 16.8805 63.6637 16.1605C62.9448 15.4405 62.0662 15.0405 61.0278 15.0405C60.3089 15.0405 59.59 15.2805 58.8711 15.7605C58.1521 16.2405 57.7528 16.4805 57.5131 16.4805C57.1936 16.4805 56.8741 16.3205 56.6345 16.0805C56.3948 15.8405 56.2351 15.5205 56.2351 15.2005C56.2351 14.9605 56.3948 14.6405 56.6345 14.3205C57.6729 13.1205 59.1107 12.5605 60.9479 12.5605C62.6253 12.5605 64.0631 13.1205 65.2613 14.3205C66.4595 15.5205 67.0985 16.9605 67.0985 18.6405L67.1784 28.6405ZM64.782 23.7605C64.782 22.7205 64.3826 21.8405 63.6637 21.1205C62.9448 20.4005 62.0662 20.0005 61.0278 20.0005C59.9893 20.0005 59.1107 20.4005 58.3918 21.1205C57.6729 21.8405 57.2735 22.7205 57.2735 23.7605C57.2735 24.8005 57.6729 25.6805 58.3918 26.4005C59.1107 27.1205 59.9893 27.5205 61.0278 27.5205C62.0662 27.5205 62.9448 27.1205 63.6637 26.4005C64.3826 25.6805 64.782 24.8005 64.782 23.7605Z" fill="#3B3938"/>
<path d="M87.6271 21.2814C87.6271 23.6814 86.8283 25.6814 85.1509 27.3614C83.4734 29.0414 81.4765 29.8414 79.0802 29.8414C76.6838 29.8414 74.6869 29.0414 73.0094 27.3614C71.332 25.6814 70.5332 23.6814 70.5332 21.2814V6.64141C70.5332 5.84141 70.9326 5.44141 71.7314 5.44141C72.5302 5.44141 72.9295 5.84141 72.9295 6.64141V15.3614C74.607 13.6814 76.6838 12.8014 79.0802 12.8014C81.4765 12.8014 83.4734 13.6014 85.1509 15.2814C86.8283 16.9614 87.6271 18.9614 87.6271 21.2814ZM85.2308 21.2814C85.2308 19.6014 84.5917 18.1614 83.3936 16.9614C82.1954 15.7614 80.7576 15.1214 79.0802 15.1214C77.4027 15.1214 75.9649 15.7614 74.7667 16.9614C73.5686 18.1614 72.9295 19.6014 72.9295 21.2814C72.9295 22.9614 73.5686 24.4014 74.7667 25.6014C75.9649 26.8014 77.4027 27.4414 79.0802 27.4414C80.7576 27.4414 82.1954 26.8014 83.3936 25.6014C84.5917 24.4814 85.2308 23.0414 85.2308 21.2814Z" fill="#3B3938"/>
<path d="M107.277 21.2814C107.277 23.6814 106.479 25.6814 104.801 27.3614C103.124 29.0414 101.127 29.8414 98.7305 29.8414C96.3342 29.8414 94.3373 29.0414 92.6598 27.3614C90.9824 25.6814 90.1836 23.6814 90.1836 21.2814V6.64141C90.1836 5.84141 90.583 5.44141 91.3818 5.44141C92.1805 5.44141 92.5799 5.84141 92.5799 6.64141V15.3614C94.2574 13.6814 96.3342 12.8014 98.7305 12.8014C101.127 12.8014 103.124 13.6014 104.801 15.2814C106.479 16.9614 107.277 18.9614 107.277 21.2814ZM104.801 21.2814C104.801 19.6014 104.162 18.1614 102.964 16.9614C101.766 15.7614 100.328 15.1214 98.6507 15.1214C96.9732 15.1214 95.5354 15.7614 94.3372 16.9614C93.1391 18.1614 92.5001 19.6014 92.5001 21.2814C92.5001 22.9614 93.1391 24.4014 94.3372 25.6014C95.5354 26.8014 96.9732 27.4414 98.6507 27.4414C100.328 27.4414 101.766 26.8014 102.964 25.6014C104.242 24.4814 104.801 23.0414 104.801 21.2814Z" fill="#3B3938"/>
<path d="M115.903 28.6394C115.903 29.4394 115.503 29.8394 114.705 29.8394C113.347 29.8394 112.228 29.3594 111.27 28.3994C110.311 27.4394 109.832 26.3194 109.832 24.9594V6.55937C109.832 5.75937 110.231 5.35938 111.03 5.35938C111.829 5.35938 112.228 5.75937 112.228 6.55937V24.9594C112.228 25.5994 112.468 26.2394 112.947 26.7194C113.427 27.1994 113.986 27.4394 114.705 27.4394C115.423 27.4394 115.903 27.8394 115.903 28.6394Z" fill="#3B3938"/>
<path d="M130.6 31.1188C130.6 32.7988 129.961 34.2388 128.763 35.4388C127.565 36.6388 126.127 37.2787 124.45 37.2787C123.411 37.2787 122.373 37.0387 121.414 36.4787C120.376 35.9187 119.657 35.1988 119.178 34.2388C119.018 33.9988 119.018 33.7588 119.018 33.5988C119.018 33.2788 119.178 32.9588 119.417 32.7188C119.657 32.4788 119.976 32.3188 120.296 32.3188C120.615 32.3188 121.095 32.7188 121.814 33.5188C122.533 34.3188 123.411 34.7188 124.45 34.7188C125.488 34.7188 126.367 34.3987 127.086 33.6787C127.805 32.9587 128.204 32.0788 128.204 31.1188V28.6387C127.086 29.4387 125.887 29.8387 124.53 29.8387C122.852 29.8387 121.414 29.2787 120.216 28.0787C119.018 26.8787 118.379 25.4388 118.379 23.7588V13.9188C118.379 13.1188 118.778 12.7188 119.577 12.7188C120.376 12.7188 120.775 13.1188 120.775 13.9188V23.7588C120.775 24.7988 121.175 25.5988 121.894 26.3188C122.612 27.0388 123.491 27.4387 124.53 27.4387C125.568 27.4387 126.447 27.1188 127.165 26.3188C127.884 25.5988 128.284 24.7188 128.284 23.7588V13.9188C128.284 13.1188 128.683 12.7188 129.482 12.7188C130.281 12.7188 130.68 13.1188 130.68 13.9188L130.6 31.1188Z" fill="#3B3938"/>
</g>
<path d="M44.8478 45.9643C44.8478 46.2479 44.659 46.437 44.3758 46.437H39.4668C39.3724 46.437 39.1836 46.437 39.0892 46.3425C38.9948 46.2479 38.9004 46.1534 38.9004 46.0588V37.8333C38.9004 37.7387 38.9948 37.6442 39.0892 37.5496C39.1836 37.4551 39.278 37.4551 39.4668 37.4551H44.3758C44.659 37.4551 44.8478 37.6442 44.8478 37.9278C44.8478 38.2115 44.659 38.4005 44.3758 38.4005H39.9388V41.6151H43.3373C43.6205 41.6151 43.8093 41.8042 43.8093 42.0879C43.8093 42.3715 43.6205 42.5606 43.3373 42.5606H39.9388V45.7752H44.3758C44.659 45.4916 44.8478 45.6807 44.8478 45.9643Z" fill="#3B3938"/>
<path d="M55.1375 45.9623C55.1375 46.246 54.9487 46.4351 54.6655 46.4351C54.3823 46.4351 54.1935 46.246 54.1935 45.9623V42.275C54.1935 41.8968 54.0047 41.6132 53.7215 41.3295C53.4383 41.0459 53.0607 40.9513 52.6831 40.9513C52.3054 40.9513 51.9278 41.0459 51.6446 41.3295C51.3614 41.6132 51.1726 41.8968 51.1726 42.275V45.9623C51.1726 46.246 50.9838 46.4351 50.7006 46.4351C50.4174 46.4351 50.2286 46.246 50.2286 45.9623V42.275C50.2286 41.8968 50.0398 41.6132 49.7566 41.3295C49.4734 41.0459 49.0958 40.9513 48.7181 40.9513C48.3405 40.9513 47.9629 41.0459 47.6797 41.3295C47.3965 41.6132 47.2077 41.8968 47.2077 42.275V45.9623C47.2077 46.246 47.0189 46.4351 46.7357 46.4351C46.4525 46.4351 46.2637 46.246 46.2637 45.9623V40.4786C46.2637 40.195 46.4525 40.0059 46.7357 40.0059C47.0189 40.0059 47.2077 40.195 47.2077 40.4786C47.6797 40.195 48.1517 40.0059 48.7181 40.0059C49.5678 40.0059 50.1342 40.2895 50.7006 40.9513C51.1726 40.384 51.8334 40.0059 52.6831 40.0059C53.3439 40.0059 53.9103 40.195 54.3823 40.6677C54.8543 41.1404 55.1375 41.6132 55.1375 42.275V45.9623Z" fill="#3B3938"/>
<path d="M61.0867 45.9646C61.0867 46.2483 60.8979 46.4374 60.6147 46.4374C60.3315 46.4374 60.1426 46.2483 60.1426 45.9646C59.6706 46.2483 59.1986 46.4374 58.6322 46.4374C57.9714 46.4374 57.405 46.2483 56.933 45.7755C56.4609 45.3028 56.1777 44.8301 56.1777 44.1682C56.1777 43.5064 56.4609 43.0337 56.933 42.5609C57.405 42.0882 57.9714 41.8991 58.6322 41.8991C59.1986 41.8991 59.6706 42.0882 60.1426 42.3718C60.1426 41.9937 59.9538 41.71 59.6706 41.4264C59.3874 41.1427 59.0098 41.0482 58.6322 41.0482C58.349 41.0482 58.0658 41.1427 57.7826 41.3318C57.4994 41.5209 57.3106 41.6155 57.2162 41.6155C57.1218 41.6155 56.933 41.6155 56.8386 41.5209C56.7441 41.4264 56.6497 41.3318 56.6497 41.1427C56.6497 41.0482 56.7441 40.9536 56.8386 40.8591C57.2162 40.3864 57.7826 40.1973 58.5378 40.1973C59.1986 40.1973 59.765 40.3864 60.2371 40.8591C60.7091 41.3318 60.9923 41.8046 60.9923 42.4664V45.9646H61.0867ZM60.1426 44.0737C60.1426 43.6955 59.9538 43.4119 59.6706 43.1282C59.3874 42.8446 59.0098 42.75 58.6322 42.75C58.2546 42.75 57.877 42.8446 57.5938 43.1282C57.3106 43.4119 57.1218 43.6955 57.1218 44.0737C57.1218 44.4519 57.3106 44.7355 57.5938 45.0192C57.877 45.3028 58.2546 45.3973 58.6322 45.3973C59.0098 45.3973 59.3874 45.3028 59.6706 45.0192C59.9538 44.8301 60.1426 44.4519 60.1426 44.0737Z" fill="#3B3938"/>
<path d="M64.1055 37.9275C64.1055 38.1165 64.0111 38.3056 63.9167 38.4002C63.7279 38.4947 63.6335 38.5893 63.4447 38.5893C63.2559 38.5893 63.0671 38.4947 62.8783 38.4002C62.6895 38.3056 62.6895 38.1165 62.6895 37.9275C62.6895 37.7384 62.7839 37.5493 62.8783 37.4547C63.0671 37.3602 63.1615 37.2656 63.4447 37.2656C63.6335 37.2656 63.8223 37.3602 63.9167 37.4547C64.0111 37.6438 64.1055 37.7384 64.1055 37.9275ZM63.9167 40.4802V45.9639C63.9167 46.2476 63.7279 46.4367 63.4447 46.4367C63.1615 46.4367 62.9727 46.2476 62.9727 45.9639V40.4802C62.9727 40.1966 63.1615 40.0075 63.4447 40.0075C63.7279 40.0075 63.9167 40.1966 63.9167 40.4802Z" fill="#3B3938"/>
<path d="M68.0717 45.9639C68.0717 46.2476 67.8829 46.4367 67.5996 46.4367C67.0332 46.4367 66.5612 46.2476 66.1836 45.8694C65.806 45.4912 65.6172 45.113 65.6172 44.5457V37.7384C65.6172 37.4547 65.806 37.2656 66.0892 37.2656C66.3724 37.2656 66.5612 37.4547 66.5612 37.7384V44.5457C66.5612 44.8294 66.6556 45.0185 66.8444 45.2076C67.0332 45.3967 67.222 45.4912 67.5052 45.4912C67.9773 45.4912 68.0717 45.6803 68.0717 45.9639Z" fill="#3B3938"/>
<path d="M83.0829 45.9639C83.0829 46.2476 82.8941 46.4367 82.6109 46.4367C82.3277 46.4367 82.2332 46.3421 82.1388 46.0585L80.534 39.2511L78.2683 44.2621C78.1739 44.5457 77.9851 44.6403 77.7963 44.6403C77.6075 44.6403 77.4187 44.5457 77.3243 44.2621L75.0586 39.2511L73.4538 46.0585C73.3594 46.3421 73.265 46.4367 72.9818 46.4367C72.6042 46.4367 72.5098 46.2476 72.5098 45.9639V45.8694L74.4922 37.7384C74.5866 37.4547 74.681 37.2656 74.9642 37.2656C75.153 37.2656 75.3418 37.3602 75.4363 37.6438L77.8907 42.9384L80.3452 37.6438C80.4396 37.4547 80.6284 37.2656 80.8172 37.2656C81.1004 37.2656 81.2892 37.4547 81.2892 37.7384L83.2717 45.8694C83.0829 45.8694 83.0829 45.8694 83.0829 45.9639Z" fill="#3B3938"/>
<path d="M88.7449 45.9646C88.7449 46.2483 88.5561 46.4374 88.2729 46.4374C87.9897 46.4374 87.8009 46.2483 87.8009 45.9646C87.3288 46.2483 86.8568 46.4374 86.2904 46.4374C85.6296 46.4374 85.0632 46.2483 84.5912 45.7755C84.1191 45.3028 83.8359 44.8301 83.8359 44.1682C83.8359 43.5064 84.1191 43.0337 84.5912 42.5609C85.0632 42.0882 85.6296 41.8991 86.2904 41.8991C86.8568 41.8991 87.3288 42.0882 87.8009 42.3718C87.8009 41.9937 87.612 41.71 87.3288 41.4264C87.0456 41.1427 86.668 41.0482 86.2904 41.0482C86.0072 41.0482 85.724 41.1427 85.4408 41.3318C85.1576 41.5209 84.9688 41.6155 84.8744 41.6155C84.78 41.6155 84.5912 41.6155 84.4968 41.5209C84.4024 41.4264 84.308 41.3318 84.308 41.1427C84.308 41.0482 84.4024 40.9536 84.4968 40.8591C84.8744 40.3864 85.4408 40.1973 86.196 40.1973C86.8568 40.1973 87.4232 40.3864 87.8953 40.8591C88.3673 41.3318 88.6505 41.8046 88.6505 42.4664V45.9646H88.7449ZM87.8009 44.0737C87.8009 43.6955 87.612 43.4119 87.3288 43.1282C87.0456 42.8446 86.668 42.75 86.2904 42.75C85.9128 42.75 85.5352 42.8446 85.252 43.1282C84.9688 43.4119 84.78 43.6955 84.78 44.0737C84.78 44.4519 84.9688 44.7355 85.252 45.0192C85.5352 45.3028 85.9128 45.3973 86.2904 45.3973C86.668 45.3973 87.0456 45.3028 87.3288 45.0192C87.612 44.8301 87.8009 44.4519 87.8009 44.0737Z" fill="#3B3938"/>
<path d="M94.2208 41.142C94.2208 41.2366 94.1264 41.3311 94.032 41.4257C93.9376 41.5202 93.8432 41.5202 93.6544 41.5202C93.5599 41.5202 93.3711 41.4257 93.1823 41.142C92.9935 40.9529 92.7103 40.7638 92.4271 40.7638C92.1439 40.7638 91.9551 40.8584 91.7663 41.0475C91.5775 41.2366 91.4831 41.4257 91.4831 41.7093V45.7748C91.4831 46.0585 91.2943 46.2475 91.0111 46.2475C90.7279 46.2475 90.5391 46.0585 90.5391 45.7748V40.2911C90.5391 40.0075 90.7279 39.8184 91.0111 39.8184C91.1999 39.8184 91.3887 39.9129 91.4831 40.102C91.7663 39.9129 92.1439 39.8184 92.5215 39.8184C92.8991 39.8184 93.1823 39.9129 93.4655 40.102C93.7488 40.2911 94.032 40.4802 94.2208 40.7638C94.2208 41.0475 94.2208 41.142 94.2208 41.142Z" fill="#3B3938"/>
<path d="M100.641 45.9608C100.641 46.0554 100.547 46.1499 100.453 46.2445C100.358 46.339 100.264 46.339 100.075 46.339C99.8861 46.339 99.7917 46.339 99.6973 46.2445L96.7709 43.5026C96.6764 43.4081 96.6764 43.3135 96.6764 43.219V45.8663C96.6764 46.1499 96.4876 46.339 96.2044 46.339C95.9212 46.339 95.7324 46.1499 95.7324 45.8663V37.6407C95.7324 37.3571 95.9212 37.168 96.2044 37.168C96.4876 37.168 96.6764 37.3571 96.6764 37.6407V43.0299C96.6764 42.9353 96.7709 42.8408 96.7709 42.7462L99.6973 40.0044C99.7917 39.9098 99.8861 39.9098 100.075 39.9098C100.264 39.9098 100.358 40.0044 100.453 40.0989C100.547 40.1935 100.641 40.288 100.641 40.3826C100.641 40.4771 100.547 40.5717 100.453 40.6662L97.9037 43.0299L100.453 45.4881C100.547 45.6772 100.641 45.7717 100.641 45.9608Z" fill="#3B3938"/>
<path d="M107.817 44.5441C107.817 44.6387 107.817 44.7332 107.722 44.8278C107.439 45.3005 107.061 45.6787 106.495 45.9623C105.928 46.246 105.362 46.4351 104.796 46.4351C103.852 46.4351 103.002 46.1514 102.341 45.4896C101.68 44.8278 101.303 44.0714 101.303 43.2205C101.303 42.3695 101.68 41.6132 102.341 40.9513C103.002 40.2895 103.852 40.0059 104.796 40.0059C105.173 40.0059 105.456 40.1004 105.834 40.195C106.212 40.2895 106.684 40.5731 107.061 40.8568C107.533 41.235 107.817 41.5186 107.817 41.8968C107.817 42.0859 107.722 42.1804 107.533 42.275L102.908 44.7332C103.38 45.2059 104.04 45.4896 104.701 45.4896C105.456 45.4896 106.117 45.2059 106.495 44.7332C106.589 44.6387 106.684 44.5441 106.778 44.355C106.872 44.1659 107.061 44.0714 107.156 44.0714C107.25 44.0714 107.439 44.0714 107.533 44.1659C107.817 44.355 107.817 44.4496 107.817 44.5441ZM106.684 41.7077C106.212 41.235 105.551 40.9513 104.89 40.9513C104.229 40.9513 103.663 41.1404 103.191 41.6132C102.719 42.0859 102.436 42.5586 102.436 43.2205C102.436 43.5041 102.436 43.6932 102.53 43.9768L106.684 41.7077Z" fill="#3B3938"/>
<path d="M113.574 45.4908C113.574 45.7745 113.386 46.0581 113.102 46.1527C112.819 46.2472 112.536 46.3418 112.158 46.3418C111.592 46.3418 111.12 46.1527 110.742 45.7745C110.365 45.3963 110.176 45.0181 110.176 44.4508V40.7635H109.232C108.949 40.7635 108.76 40.5744 108.76 40.2908C108.76 40.0071 108.949 39.818 109.232 39.818H110.176V37.5489C110.176 37.2653 110.365 37.0762 110.648 37.0762C110.931 37.0762 111.12 37.2653 111.12 37.5489V39.818H112.064C112.347 39.818 112.536 40.0071 112.536 40.2908C112.536 40.5744 112.347 40.7635 112.064 40.7635H111.12V44.4508C111.12 44.7345 111.214 44.9236 111.403 45.1127C111.592 45.3018 111.781 45.3963 112.064 45.3963C112.253 45.3963 112.536 45.3018 112.725 45.2072C112.913 45.0181 113.102 45.0181 113.197 45.0181C113.48 45.0181 113.574 45.2072 113.574 45.4908Z" fill="#3B3938"/>
<path d="M116.217 37.9275C116.217 38.1165 116.122 38.3056 116.028 38.4002C115.839 38.4947 115.745 38.5893 115.556 38.5893C115.367 38.5893 115.178 38.4947 114.99 38.4002C114.801 38.3056 114.801 38.1165 114.801 37.9275C114.801 37.7384 114.895 37.5493 114.99 37.4547C115.178 37.3602 115.273 37.2656 115.556 37.2656C115.745 37.2656 115.934 37.3602 116.028 37.4547C116.122 37.6438 116.217 37.7384 116.217 37.9275ZM116.028 40.4802V45.9639C116.028 46.2476 115.839 46.4367 115.556 46.4367C115.273 46.4367 115.084 46.2476 115.084 45.9639V40.4802C115.084 40.1966 115.273 40.0075 115.556 40.0075C115.839 40.0075 116.028 40.1966 116.028 40.4802Z" fill="#3B3938"/>
<path d="M123.012 45.9623C123.012 46.246 122.824 46.4351 122.54 46.4351C122.257 46.4351 122.068 46.246 122.068 45.9623V42.275C122.068 41.8968 121.88 41.6132 121.596 41.3295C121.313 41.0459 120.936 40.9513 120.558 40.9513C120.18 40.9513 119.803 41.0459 119.52 41.3295C119.236 41.6132 119.048 41.8968 119.048 42.275V45.9623C119.048 46.246 118.859 46.4351 118.576 46.4351C118.292 46.4351 118.104 46.246 118.104 45.9623V40.4786C118.104 40.195 118.292 40.0059 118.576 40.0059C118.859 40.0059 119.048 40.195 119.048 40.4786C119.52 40.195 119.992 40.0059 120.558 40.0059C121.219 40.0059 121.785 40.195 122.257 40.6677C122.729 41.1404 123.012 41.6132 123.012 42.275V45.9623Z" fill="#3B3938"/>
<path d="M130 40.4786C130 40.6677 129.906 40.8568 129.623 40.9513C129.528 40.9513 129.339 40.9513 128.962 40.9513C129.245 41.3295 129.434 41.8023 129.434 42.275C129.434 43.0314 129.15 43.5986 128.49 44.0714C129.434 44.6387 129.906 45.395 129.906 46.4351C129.906 47.1914 129.623 47.8533 129.056 48.326C128.49 48.8933 127.829 49.0824 126.979 49.0824C126.13 49.0824 125.469 48.7987 124.902 48.326C124.336 47.7587 124.053 47.1914 124.053 46.4351C124.053 46.1514 124.242 45.9623 124.525 45.9623C124.808 45.9623 124.997 46.1514 124.997 46.4351C124.997 46.9078 125.186 47.3805 125.563 47.7587C125.941 48.1369 126.413 48.326 126.979 48.326C127.546 48.326 128.018 48.1369 128.395 47.7587C128.773 47.3805 128.962 47.0023 128.962 46.4351C128.962 45.9623 128.773 45.4896 128.395 45.1114C128.018 44.7332 127.546 44.5441 126.979 44.5441C126.318 44.5441 125.752 44.355 125.28 43.8823C124.808 43.4096 124.525 42.9368 124.525 42.275C124.525 41.6132 124.808 41.1404 125.28 40.6677C125.752 40.195 126.318 40.0059 126.979 40.0059H129.434C129.811 40.0059 130 40.195 130 40.4786ZM128.49 42.275C128.49 41.8968 128.301 41.6132 128.018 41.3295C127.734 41.0459 127.357 40.9513 126.979 40.9513C126.602 40.9513 126.224 41.0459 125.941 41.3295C125.658 41.6132 125.469 41.8968 125.469 42.275C125.469 42.6532 125.658 42.9368 125.941 43.2205C126.224 43.5041 126.602 43.5986 126.979 43.5986C127.357 43.5986 127.734 43.5041 128.018 43.2205C128.395 43.0314 128.49 42.6532 128.49 42.275Z" fill="#3B3938"/>
<path d="M44.8478 45.9643C44.8478 46.2479 44.659 46.437 44.3758 46.437H39.4668C39.3724 46.437 39.1836 46.437 39.0892 46.3425C38.9948 46.2479 38.9004 46.1534 38.9004 46.0588V37.8333C38.9004 37.7387 38.9948 37.6442 39.0892 37.5496C39.1836 37.4551 39.278 37.4551 39.4668 37.4551H44.3758C44.659 37.4551 44.8478 37.6442 44.8478 37.9278C44.8478 38.2115 44.659 38.4005 44.3758 38.4005H39.9388V41.6151H43.3373C43.6205 41.6151 43.8093 41.8042 43.8093 42.0879C43.8093 42.3715 43.6205 42.5606 43.3373 42.5606H39.9388V45.7752H44.3758C44.659 45.4916 44.8478 45.6807 44.8478 45.9643Z" stroke="#3B3938" stroke-width="0.25"/>
<path d="M55.1375 45.9623C55.1375 46.246 54.9487 46.4351 54.6655 46.4351C54.3823 46.4351 54.1935 46.246 54.1935 45.9623V42.275C54.1935 41.8968 54.0047 41.6132 53.7215 41.3295C53.4383 41.0459 53.0607 40.9513 52.6831 40.9513C52.3054 40.9513 51.9278 41.0459 51.6446 41.3295C51.3614 41.6132 51.1726 41.8968 51.1726 42.275V45.9623C51.1726 46.246 50.9838 46.4351 50.7006 46.4351C50.4174 46.4351 50.2286 46.246 50.2286 45.9623V42.275C50.2286 41.8968 50.0398 41.6132 49.7566 41.3295C49.4734 41.0459 49.0958 40.9513 48.7181 40.9513C48.3405 40.9513 47.9629 41.0459 47.6797 41.3295C47.3965 41.6132 47.2077 41.8968 47.2077 42.275V45.9623C47.2077 46.246 47.0189 46.4351 46.7357 46.4351C46.4525 46.4351 46.2637 46.246 46.2637 45.9623V40.4786C46.2637 40.195 46.4525 40.0059 46.7357 40.0059C47.0189 40.0059 47.2077 40.195 47.2077 40.4786C47.6797 40.195 48.1517 40.0059 48.7181 40.0059C49.5678 40.0059 50.1342 40.2895 50.7006 40.9513C51.1726 40.384 51.8334 40.0059 52.6831 40.0059C53.3439 40.0059 53.9103 40.195 54.3823 40.6677C54.8543 41.1404 55.1375 41.6132 55.1375 42.275V45.9623Z" stroke="#3B3938" stroke-width="0.25"/>
<path d="M61.0867 45.9646C61.0867 46.2483 60.8979 46.4374 60.6147 46.4374C60.3315 46.4374 60.1426 46.2483 60.1426 45.9646C59.6706 46.2483 59.1986 46.4374 58.6322 46.4374C57.9714 46.4374 57.405 46.2483 56.933 45.7755C56.4609 45.3028 56.1777 44.8301 56.1777 44.1682C56.1777 43.5064 56.4609 43.0337 56.933 42.5609C57.405 42.0882 57.9714 41.8991 58.6322 41.8991C59.1986 41.8991 59.6706 42.0882 60.1426 42.3718C60.1426 41.9937 59.9538 41.71 59.6706 41.4264C59.3874 41.1427 59.0098 41.0482 58.6322 41.0482C58.349 41.0482 58.0658 41.1427 57.7826 41.3318C57.4994 41.5209 57.3106 41.6155 57.2162 41.6155C57.1218 41.6155 56.933 41.6155 56.8386 41.5209C56.7441 41.4264 56.6497 41.3318 56.6497 41.1427C56.6497 41.0482 56.7441 40.9536 56.8386 40.8591C57.2162 40.3864 57.7826 40.1973 58.5378 40.1973C59.1986 40.1973 59.765 40.3864 60.2371 40.8591C60.7091 41.3318 60.9923 41.8046 60.9923 42.4664V45.9646H61.0867ZM60.1426 44.0737C60.1426 43.6955 59.9538 43.4119 59.6706 43.1282C59.3874 42.8446 59.0098 42.75 58.6322 42.75C58.2546 42.75 57.877 42.8446 57.5938 43.1282C57.3106 43.4119 57.1218 43.6955 57.1218 44.0737C57.1218 44.4519 57.3106 44.7355 57.5938 45.0192C57.877 45.3028 58.2546 45.3973 58.6322 45.3973C59.0098 45.3973 59.3874 45.3028 59.6706 45.0192C59.9538 44.8301 60.1426 44.4519 60.1426 44.0737Z" stroke="#3B3938" stroke-width="0.25"/>
<path d="M64.1055 37.9275C64.1055 38.1165 64.0111 38.3056 63.9167 38.4002C63.7279 38.4947 63.6335 38.5893 63.4447 38.5893C63.2559 38.5893 63.0671 38.4947 62.8783 38.4002C62.6895 38.3056 62.6895 38.1165 62.6895 37.9275C62.6895 37.7384 62.7839 37.5493 62.8783 37.4547C63.0671 37.3602 63.1615 37.2656 63.4447 37.2656C63.6335 37.2656 63.8223 37.3602 63.9167 37.4547C64.0111 37.6438 64.1055 37.7384 64.1055 37.9275ZM63.9167 40.4802V45.9639C63.9167 46.2476 63.7279 46.4367 63.4447 46.4367C63.1615 46.4367 62.9727 46.2476 62.9727 45.9639V40.4802C62.9727 40.1966 63.1615 40.0075 63.4447 40.0075C63.7279 40.0075 63.9167 40.1966 63.9167 40.4802Z" stroke="#3B3938" stroke-width="0.25"/>
<path d="M68.0717 45.9639C68.0717 46.2476 67.8829 46.4367 67.5996 46.4367C67.0332 46.4367 66.5612 46.2476 66.1836 45.8694C65.806 45.4912 65.6172 45.113 65.6172 44.5457V37.7384C65.6172 37.4547 65.806 37.2656 66.0892 37.2656C66.3724 37.2656 66.5612 37.4547 66.5612 37.7384V44.5457C66.5612 44.8294 66.6556 45.0185 66.8444 45.2076C67.0332 45.3967 67.222 45.4912 67.5052 45.4912C67.9773 45.4912 68.0717 45.6803 68.0717 45.9639Z" stroke="#3B3938" stroke-width="0.25"/>
<path d="M83.0829 45.9639C83.0829 46.2476 82.8941 46.4367 82.6109 46.4367C82.3277 46.4367 82.2332 46.3421 82.1388 46.0585L80.534 39.2511L78.2683 44.2621C78.1739 44.5457 77.9851 44.6403 77.7963 44.6403C77.6075 44.6403 77.4187 44.5457 77.3243 44.2621L75.0586 39.2511L73.4538 46.0585C73.3594 46.3421 73.265 46.4367 72.9818 46.4367C72.6042 46.4367 72.5098 46.2476 72.5098 45.9639V45.8694L74.4922 37.7384C74.5866 37.4547 74.681 37.2656 74.9642 37.2656C75.153 37.2656 75.3418 37.3602 75.4363 37.6438L77.8907 42.9384L80.3452 37.6438C80.4396 37.4547 80.6284 37.2656 80.8172 37.2656C81.1004 37.2656 81.2892 37.4547 81.2892 37.7384L83.2717 45.8694C83.0829 45.8694 83.0829 45.8694 83.0829 45.9639Z" stroke="#3B3938" stroke-width="0.25"/>
<path d="M88.7449 45.9646C88.7449 46.2483 88.5561 46.4374 88.2729 46.4374C87.9897 46.4374 87.8009 46.2483 87.8009 45.9646C87.3288 46.2483 86.8568 46.4374 86.2904 46.4374C85.6296 46.4374 85.0632 46.2483 84.5912 45.7755C84.1191 45.3028 83.8359 44.8301 83.8359 44.1682C83.8359 43.5064 84.1191 43.0337 84.5912 42.5609C85.0632 42.0882 85.6296 41.8991 86.2904 41.8991C86.8568 41.8991 87.3288 42.0882 87.8009 42.3718C87.8009 41.9937 87.612 41.71 87.3288 41.4264C87.0456 41.1427 86.668 41.0482 86.2904 41.0482C86.0072 41.0482 85.724 41.1427 85.4408 41.3318C85.1576 41.5209 84.9688 41.6155 84.8744 41.6155C84.78 41.6155 84.5912 41.6155 84.4968 41.5209C84.4024 41.4264 84.308 41.3318 84.308 41.1427C84.308 41.0482 84.4024 40.9536 84.4968 40.8591C84.8744 40.3864 85.4408 40.1973 86.196 40.1973C86.8568 40.1973 87.4232 40.3864 87.8953 40.8591C88.3673 41.3318 88.6505 41.8046 88.6505 42.4664V45.9646H88.7449ZM87.8009 44.0737C87.8009 43.6955 87.612 43.4119 87.3288 43.1282C87.0456 42.8446 86.668 42.75 86.2904 42.75C85.9128 42.75 85.5352 42.8446 85.252 43.1282C84.9688 43.4119 84.78 43.6955 84.78 44.0737C84.78 44.4519 84.9688 44.7355 85.252 45.0192C85.5352 45.3028 85.9128 45.3973 86.2904 45.3973C86.668 45.3973 87.0456 45.3028 87.3288 45.0192C87.612 44.8301 87.8009 44.4519 87.8009 44.0737Z" stroke="#3B3938" stroke-width="0.25"/>
<path d="M94.2208 41.142C94.2208 41.2366 94.1264 41.3311 94.032 41.4257C93.9376 41.5202 93.8432 41.5202 93.6544 41.5202C93.5599 41.5202 93.3711 41.4257 93.1823 41.142C92.9935 40.9529 92.7103 40.7638 92.4271 40.7638C92.1439 40.7638 91.9551 40.8584 91.7663 41.0475C91.5775 41.2366 91.4831 41.4257 91.4831 41.7093V45.7748C91.4831 46.0585 91.2943 46.2475 91.0111 46.2475C90.7279 46.2475 90.5391 46.0585 90.5391 45.7748V40.2911C90.5391 40.0075 90.7279 39.8184 91.0111 39.8184C91.1999 39.8184 91.3887 39.9129 91.4831 40.102C91.7663 39.9129 92.1439 39.8184 92.5215 39.8184C92.8991 39.8184 93.1823 39.9129 93.4655 40.102C93.7488 40.2911 94.032 40.4802 94.2208 40.7638C94.2208 41.0475 94.2208 41.142 94.2208 41.142Z" stroke="#3B3938" stroke-width="0.25"/>
<path d="M100.641 45.9608C100.641 46.0554 100.547 46.1499 100.453 46.2445C100.358 46.339 100.264 46.339 100.075 46.339C99.8861 46.339 99.7917 46.339 99.6973 46.2445L96.7709 43.5026C96.6764 43.4081 96.6764 43.3135 96.6764 43.219V45.8663C96.6764 46.1499 96.4876 46.339 96.2044 46.339C95.9212 46.339 95.7324 46.1499 95.7324 45.8663V37.6407C95.7324 37.3571 95.9212 37.168 96.2044 37.168C96.4876 37.168 96.6764 37.3571 96.6764 37.6407V43.0299C96.6764 42.9353 96.7709 42.8408 96.7709 42.7462L99.6973 40.0044C99.7917 39.9098 99.8861 39.9098 100.075 39.9098C100.264 39.9098 100.358 40.0044 100.453 40.0989C100.547 40.1935 100.641 40.288 100.641 40.3826C100.641 40.4771 100.547 40.5717 100.453 40.6662L97.9037 43.0299L100.453 45.4881C100.547 45.6772 100.641 45.7717 100.641 45.9608Z" stroke="#3B3938" stroke-width="0.25"/>
<path d="M107.817 44.5441C107.817 44.6387 107.817 44.7332 107.722 44.8278C107.439 45.3005 107.061 45.6787 106.495 45.9623C105.928 46.246 105.362 46.4351 104.796 46.4351C103.852 46.4351 103.002 46.1514 102.341 45.4896C101.68 44.8278 101.303 44.0714 101.303 43.2205C101.303 42.3695 101.68 41.6132 102.341 40.9513C103.002 40.2895 103.852 40.0059 104.796 40.0059C105.173 40.0059 105.456 40.1004 105.834 40.195C106.212 40.2895 106.684 40.5731 107.061 40.8568C107.533 41.235 107.817 41.5186 107.817 41.8968C107.817 42.0859 107.722 42.1804 107.533 42.275L102.908 44.7332C103.38 45.2059 104.04 45.4896 104.701 45.4896C105.456 45.4896 106.117 45.2059 106.495 44.7332C106.589 44.6387 106.684 44.5441 106.778 44.355C106.872 44.1659 107.061 44.0714 107.156 44.0714C107.25 44.0714 107.439 44.0714 107.533 44.1659C107.817 44.355 107.817 44.4496 107.817 44.5441ZM106.684 41.7077C106.212 41.235 105.551 40.9513 104.89 40.9513C104.229 40.9513 103.663 41.1404 103.191 41.6132C102.719 42.0859 102.436 42.5586 102.436 43.2205C102.436 43.5041 102.436 43.6932 102.53 43.9768L106.684 41.7077Z" stroke="#3B3938" stroke-width="0.25"/>
<path d="M113.574 45.4908C113.574 45.7745 113.386 46.0581 113.102 46.1527C112.819 46.2472 112.536 46.3418 112.158 46.3418C111.592 46.3418 111.12 46.1527 110.742 45.7745C110.365 45.3963 110.176 45.0181 110.176 44.4508V40.7635H109.232C108.949 40.7635 108.76 40.5744 108.76 40.2908C108.76 40.0071 108.949 39.818 109.232 39.818H110.176V37.5489C110.176 37.2653 110.365 37.0762 110.648 37.0762C110.931 37.0762 111.12 37.2653 111.12 37.5489V39.818H112.064C112.347 39.818 112.536 40.0071 112.536 40.2908C112.536 40.5744 112.347 40.7635 112.064 40.7635H111.12V44.4508C111.12 44.7345 111.214 44.9236 111.403 45.1127C111.592 45.3018 111.781 45.3963 112.064 45.3963C112.253 45.3963 112.536 45.3018 112.725 45.2072C112.913 45.0181 113.102 45.0181 113.197 45.0181C113.48 45.0181 113.574 45.2072 113.574 45.4908Z" stroke="#3B3938" stroke-width="0.25"/>
<path d="M116.217 37.9275C116.217 38.1165 116.122 38.3056 116.028 38.4002C115.839 38.4947 115.745 38.5893 115.556 38.5893C115.367 38.5893 115.178 38.4947 114.99 38.4002C114.801 38.3056 114.801 38.1165 114.801 37.9275C114.801 37.7384 114.895 37.5493 114.99 37.4547C115.178 37.3602 115.273 37.2656 115.556 37.2656C115.745 37.2656 115.934 37.3602 116.028 37.4547C116.122 37.6438 116.217 37.7384 116.217 37.9275ZM116.028 40.4802V45.9639C116.028 46.2476 115.839 46.4367 115.556 46.4367C115.273 46.4367 115.084 46.2476 115.084 45.9639V40.4802C115.084 40.1966 115.273 40.0075 115.556 40.0075C115.839 40.0075 116.028 40.1966 116.028 40.4802Z" stroke="#3B3938" stroke-width="0.25"/>
<path d="M123.012 45.9623C123.012 46.246 122.824 46.4351 122.54 46.4351C122.257 46.4351 122.068 46.246 122.068 45.9623V42.275C122.068 41.8968 121.88 41.6132 121.596 41.3295C121.313 41.0459 120.936 40.9513 120.558 40.9513C120.18 40.9513 119.803 41.0459 119.52 41.3295C119.236 41.6132 119.048 41.8968 119.048 42.275V45.9623C119.048 46.246 118.859 46.4351 118.576 46.4351C118.292 46.4351 118.104 46.246 118.104 45.9623V40.4786C118.104 40.195 118.292 40.0059 118.576 40.0059C118.859 40.0059 119.048 40.195 119.048 40.4786C119.52 40.195 119.992 40.0059 120.558 40.0059C121.219 40.0059 121.785 40.195 122.257 40.6677C122.729 41.1404 123.012 41.6132 123.012 42.275V45.9623Z" stroke="#3B3938" stroke-width="0.25"/>
<path d="M130 40.4786C130 40.6677 129.906 40.8568 129.623 40.9513C129.528 40.9513 129.339 40.9513 128.962 40.9513C129.245 41.3295 129.434 41.8023 129.434 42.275C129.434 43.0314 129.15 43.5986 128.49 44.0714C129.434 44.6387 129.906 45.395 129.906 46.4351C129.906 47.1914 129.623 47.8533 129.056 48.326C128.49 48.8933 127.829 49.0824 126.979 49.0824C126.13 49.0824 125.469 48.7987 124.902 48.326C124.336 47.7587 124.053 47.1914 124.053 46.4351C124.053 46.1514 124.242 45.9623 124.525 45.9623C124.808 45.9623 124.997 46.1514 124.997 46.4351C124.997 46.9078 125.186 47.3805 125.563 47.7587C125.941 48.1369 126.413 48.326 126.979 48.326C127.546 48.326 128.018 48.1369 128.395 47.7587C128.773 47.3805 128.962 47.0023 128.962 46.4351C128.962 45.9623 128.773 45.4896 128.395 45.1114C128.018 44.7332 127.546 44.5441 126.979 44.5441C126.318 44.5441 125.752 44.355 125.28 43.8823C124.808 43.4096 124.525 42.9368 124.525 42.275C124.525 41.6132 124.808 41.1404 125.28 40.6677C125.752 40.195 126.318 40.0059 126.979 40.0059H129.434C129.811 40.0059 130 40.195 130 40.4786ZM128.49 42.275C128.49 41.8968 128.301 41.6132 128.018 41.3295C127.734 41.0459 127.357 40.9513 126.979 40.9513C126.602 40.9513 126.224 41.0459 125.941 41.3295C125.658 41.6132 125.469 41.8968 125.469 42.275C125.469 42.6532 125.658 42.9368 125.941 43.2205C126.224 43.5041 126.602 43.5986 126.979 43.5986C127.357 43.5986 127.734 43.5041 128.018 43.2205C128.395 43.0314 128.49 42.6532 128.49 42.275Z" stroke="#3B3938" stroke-width="0.25"/>
</svg>
