<svg width="32" height="32" viewBox="0 0 32 32" fill="none" xmlns="http://www.w3.org/2000/svg">
<mask id="mask0_3381_27486" style="mask-type:luminance" maskUnits="userSpaceOnUse" x="0" y="0" width="32" height="32">
<path d="M32 0H0V31.9827H32V0Z" fill="white"/>
</mask>
<g mask="url(#mask0_3381_27486)">
<mask id="mask1_3381_27486" style="mask-type:luminance" maskUnits="userSpaceOnUse" x="0" y="0" width="32" height="32">
<path d="M32 0H0V31.9827H32V0Z" fill="white"/>
</mask>
<g mask="url(#mask1_3381_27486)">
<mask id="mask2_3381_27486" style="mask-type:luminance" maskUnits="userSpaceOnUse" x="0" y="0" width="32" height="32">
<path d="M32 0H0V31.9827H32V0Z" fill="white"/>
</mask>
<g mask="url(#mask2_3381_27486)">
<mask id="mask3_3381_27486" style="mask-type:luminance" maskUnits="userSpaceOnUse" x="3" y="3" width="26" height="26">
<path d="M26.3435 4.36133H5.65702C4.94298 4.36133 4.36412 4.93988 4.36412 5.65356V26.3292C4.36412 27.0429 4.94298 27.6215 5.65702 27.6215H26.3435C27.0575 27.6215 27.6364 27.0429 27.6364 26.3292V5.65356C27.6364 4.93988 27.0575 4.36133 26.3435 4.36133Z" stroke="white" stroke-width="2"/>
</mask>
<g mask="url(#mask3_3381_27486)">
<path d="M26.3435 4.36133H5.65702C4.94298 4.36133 4.36412 4.93988 4.36412 5.65356V26.3292C4.36412 27.0429 4.94298 27.6215 5.65702 27.6215H26.3435C27.0575 27.6215 27.6364 27.0429 27.6364 26.3292V5.65356C27.6364 4.93988 27.0575 4.36133 26.3435 4.36133Z" fill="white" stroke="white" stroke-width="2"/>
</g>
<path d="M23.7729 19.8527V12.1301H31.5V19.8527H23.7729Z" fill="white" stroke="white"/>
<path d="M0.5 19.8527V12.1301H8.22711V19.8527H0.5Z" fill="white" stroke="white"/>
<path d="M15.9993 0.5C18.1333 0.5 19.8629 2.22901 19.8629 4.36127C19.8629 6.49355 18.1333 8.22255 15.9993 8.22255C13.8653 8.22255 12.1358 6.49355 12.1358 4.36127C12.1358 2.229 13.8653 0.5 15.9993 0.5Z" fill="white" stroke="white"/>
<path d="M15.9993 23.7601C18.1333 23.7601 19.8629 25.4892 19.8629 27.6214C19.8629 29.7537 18.1333 31.4827 15.9993 31.4827C13.8653 31.4827 12.1358 29.7537 12.1358 27.6214C12.1358 25.4892 13.8653 23.7601 15.9993 23.7601Z" fill="white" stroke="white"/>
</g>
</g>
</g>
</svg>
