<svg width="22" height="23" viewBox="0 0 22 23" fill="none" xmlns="http://www.w3.org/2000/svg">
<path d="M20.1667 3.4541H17.9667V4.5541C17.9667 4.84585 17.8507 5.12564 17.6446 5.33192C17.4382 5.53821 17.1585 5.6541 16.8667 5.6541C16.575 5.6541 16.2952 5.53821 16.0889 5.33192C15.8826 5.12564 15.7667 4.84585 15.7667 4.5541V3.4541H12.1001V4.5541C12.1001 4.84585 11.9841 5.12564 11.7778 5.33192C11.5716 5.53821 11.2918 5.6541 11 5.6541C10.7083 5.6541 10.4285 5.53821 10.2222 5.33192C10.0159 5.12564 9.90003 4.84585 9.90003 4.5541V3.4541H6.23337V4.5541C6.23337 4.84585 6.11748 5.12564 5.91118 5.33192C5.70489 5.53821 5.4251 5.6541 5.13337 5.6541C4.84162 5.6541 4.56183 5.53821 4.35555 5.33192C4.14926 5.12564 4.03337 4.84585 4.03337 4.5541V3.4541H1.83337C1.44438 3.4541 1.07132 3.60863 0.796276 3.88369C0.521222 4.15874 0.366699 4.53178 0.366699 4.92077V7.8541H21.6334V4.92077C21.6334 4.53178 21.4788 4.15874 21.2038 3.88369C20.9288 3.60863 20.5556 3.4541 20.1667 3.4541Z" fill="white"/>
<path d="M9.53328 10.4209H8.06662C7.86411 10.4209 7.69995 10.5851 7.69995 10.7876V11.8876C7.69995 12.0901 7.86411 12.2542 8.06662 12.2542H9.53328C9.73578 12.2542 9.89995 12.0901 9.89995 11.8876V10.7876C9.89995 10.5851 9.73578 10.4209 9.53328 10.4209Z" fill="white"/>
<path d="M5.13338 10.4209H3.66672C3.46421 10.4209 3.30005 10.5851 3.30005 10.7876V11.8876C3.30005 12.0901 3.46421 12.2542 3.66672 12.2542H5.13338C5.33589 12.2542 5.50005 12.0901 5.50005 11.8876V10.7876C5.50005 10.5851 5.33589 10.4209 5.13338 10.4209Z" fill="white"/>
<path d="M18.3333 10.4209H16.8667C16.6641 10.4209 16.5 10.5851 16.5 10.7876V11.8876C16.5 12.0901 16.6641 12.2542 16.8667 12.2542H18.3333C18.5359 12.2542 18.7 12.0901 18.7 11.8876V10.7876C18.7 10.5851 18.5359 10.4209 18.3333 10.4209Z" fill="white"/>
<path d="M9.53328 13.7212H8.06662C7.86411 13.7212 7.69995 13.8853 7.69995 14.0879V15.1879C7.69995 15.3904 7.86411 15.5545 8.06662 15.5545H9.53328C9.73578 15.5545 9.89995 15.3904 9.89995 15.1879V14.0879C9.89995 13.8853 9.73578 13.7212 9.53328 13.7212Z" fill="white"/>
<path d="M5.13338 13.7212H3.66672C3.46421 13.7212 3.30005 13.8853 3.30005 14.0879V15.1879C3.30005 15.3904 3.46421 15.5545 3.66672 15.5545H5.13338C5.33589 15.5545 5.50005 15.3904 5.50005 15.1879V14.0879C5.50005 13.8853 5.33589 13.7212 5.13338 13.7212Z" fill="white"/>
<path d="M9.53328 17.0215H8.06662C7.86411 17.0215 7.69995 17.1856 7.69995 17.3882V18.4882C7.69995 18.6907 7.86411 18.8548 8.06662 18.8548H9.53328C9.73578 18.8548 9.89995 18.6907 9.89995 18.4882V17.3882C9.89995 17.1856 9.73578 17.0215 9.53328 17.0215Z" fill="white"/>
<path d="M13.9334 10.4209H12.4668C12.2642 10.4209 12.1001 10.5851 12.1001 10.7876V11.8876C12.1001 12.0901 12.2642 12.2542 12.4668 12.2542H13.9334C14.136 12.2542 14.3001 12.0901 14.3001 11.8876V10.7876C14.3001 10.5851 14.136 10.4209 13.9334 10.4209Z" fill="white"/>
<path d="M13.9334 13.7212H12.4668C12.2642 13.7212 12.1001 13.8853 12.1001 14.0879V15.1879C12.1001 15.3904 12.2642 15.5545 12.4668 15.5545H13.9334C14.136 15.5545 14.3001 15.3904 14.3001 15.1879V14.0879C14.3001 13.8853 14.136 13.7212 13.9334 13.7212Z" fill="white"/>
<path d="M5.13338 17.0215H3.66672C3.46421 17.0215 3.30005 17.1856 3.30005 17.3882V18.4882C3.30005 18.6907 3.46421 18.8548 3.66672 18.8548H5.13338C5.33589 18.8548 5.50005 18.6907 5.50005 18.4882V17.3882C5.50005 17.1856 5.33589 17.0215 5.13338 17.0215Z" fill="white"/>
<path d="M20.1666 3.08769H18.3333V2.35436C18.3333 1.96538 18.1788 1.59233 17.9037 1.31727C17.6287 1.04222 17.2557 0.887695 16.8666 0.887695C16.4777 0.887695 16.1046 1.04222 15.8296 1.31727C15.5545 1.59233 15.4 1.96538 15.4 2.35436V3.08769H12.4666V2.35436C12.4666 1.96538 12.3122 1.59233 12.037 1.31727C11.762 1.04222 11.389 0.887695 11 0.887695C10.611 0.887695 10.238 1.04222 9.96291 1.31727C9.68786 1.59233 9.53333 1.96538 9.53333 2.35436V3.08769H6.6V2.35436C6.6 1.96538 6.44548 1.59233 6.17043 1.31727C5.89537 1.04222 5.52232 0.887695 5.13333 0.887695C4.74435 0.887695 4.37129 1.04222 4.09624 1.31727C3.82119 1.59233 3.66667 1.96538 3.66667 2.35436V3.08769H1.83333C1.3471 3.08769 0.880783 3.28085 0.536971 3.62466C0.193154 3.96848 0 4.4348 0 4.92102V19.5877C0 20.0739 0.193154 20.5403 0.536971 20.8841C0.880783 21.2279 1.3471 21.421 1.83333 21.421H12.1C12.1973 21.421 12.2905 21.3824 12.3593 21.3136C12.428 21.2449 12.4666 21.1516 12.4666 21.0544C12.4666 20.9571 12.428 20.8638 12.3593 20.7951C12.2905 20.7263 12.1973 20.6877 12.1 20.6877H1.83333C1.54186 20.6868 1.26258 20.5706 1.05648 20.3645C0.850375 20.1585 0.734204 19.8792 0.733333 19.5877V8.22102H21.2666V14.4544C21.2666 14.5516 21.3053 14.6449 21.3741 14.7136C21.4428 14.7824 21.5361 14.821 21.6333 14.821C21.7306 14.821 21.8239 14.7824 21.8927 14.7136C21.9614 14.6449 22 14.5516 22 14.4544V4.92102C22 4.4348 21.8069 3.96848 21.4631 3.62466C21.1192 3.28085 20.6528 3.08769 20.1666 3.08769ZM16.1333 2.35436C16.1333 2.15986 16.2106 1.97334 16.3482 1.83582C16.4857 1.69829 16.6722 1.62103 16.8666 1.62103C17.0611 1.62103 17.2477 1.69829 17.3852 1.83582C17.5227 1.97334 17.6 2.15986 17.6 2.35436V4.55436C17.6 4.74885 17.5227 4.93538 17.3852 5.07291C17.2477 5.21043 17.0611 5.28769 16.8666 5.28769C16.6722 5.28769 16.4857 5.21043 16.3482 5.07291C16.2106 4.93538 16.1333 4.74885 16.1333 4.55436V2.35436ZM10.2667 2.35436C10.2667 2.15986 10.3439 1.97334 10.4815 1.83582C10.619 1.69829 10.8055 1.62103 11 1.62103C11.1945 1.62103 11.381 1.69829 11.5185 1.83582C11.6561 1.97334 11.7333 2.15986 11.7333 2.35436V4.55436C11.7333 4.74885 11.6561 4.93538 11.5185 5.07291C11.381 5.21043 11.1945 5.28769 11 5.28769C10.8055 5.28769 10.619 5.21043 10.4815 5.07291C10.3439 4.93538 10.2667 4.74885 10.2667 4.55436V2.35436ZM4.4 2.35436C4.4 2.15986 4.47726 1.97334 4.61479 1.83582C4.75232 1.69829 4.93884 1.62103 5.13333 1.62103C5.32783 1.62103 5.51435 1.69829 5.65187 1.83582C5.78941 1.97334 5.86667 2.15986 5.86667 2.35436V4.55436C5.86667 4.74885 5.78941 4.93538 5.65187 5.07291C5.51435 5.21043 5.32783 5.28769 5.13333 5.28769C4.93884 5.28769 4.75232 5.21043 4.61479 5.07291C4.47726 4.93538 4.4 4.74885 4.4 4.55436V2.35436ZM21.2666 7.48769H0.733333V4.92102C0.734204 4.62956 0.850375 4.35027 1.05648 4.14417C1.26258 3.93808 1.54186 3.8219 1.83333 3.82102H3.66667V4.55436C3.66667 4.94334 3.82119 5.3164 4.09624 5.59145C4.37129 5.86651 4.74435 6.02102 5.13333 6.02102C5.52232 6.02102 5.89537 5.86651 6.17043 5.59145C6.44548 5.3164 6.6 4.94334 6.6 4.55436V3.82102H9.53333V4.55436C9.53333 4.94334 9.68786 5.3164 9.96291 5.59145C10.238 5.86651 10.611 6.02102 11 6.02102C11.389 6.02102 11.762 5.86651 12.037 5.59145C12.3122 5.3164 12.4666 4.94334 12.4666 4.55436V3.82102H15.4V4.55436C15.4 4.94334 15.5545 5.3164 15.8296 5.59145C16.1046 5.86651 16.4777 6.02102 16.8666 6.02102C17.2557 6.02102 17.6287 5.86651 17.9037 5.59145C18.1788 5.3164 18.3333 4.94334 18.3333 4.55436V3.82102H20.1666C20.4581 3.8219 20.7374 3.93808 20.9435 4.14417C21.1497 4.35027 21.2658 4.62956 21.2666 4.92102V7.48769Z" fill="white"/>
<path d="M10.2666 10.7875C10.2666 10.593 10.1893 10.4065 10.0518 10.269C9.91427 10.1315 9.72774 10.0542 9.53325 10.0542H8.06659C7.87209 10.0542 7.68557 10.1315 7.54804 10.269C7.41051 10.4065 7.33325 10.593 7.33325 10.7875V11.8875C7.33325 12.082 7.41051 12.2686 7.54804 12.4061C7.68557 12.5436 7.87209 12.6209 8.06659 12.6209H9.53325C9.72774 12.6209 9.91427 12.5436 10.0518 12.4061C10.1893 12.2686 10.2666 12.082 10.2666 11.8875V10.7875ZM8.06659 11.8875V10.7875H9.53325V11.8875H8.06659Z" fill="white"/>
<path d="M5.86693 10.7875C5.86693 10.593 5.78966 10.4065 5.65213 10.269C5.51461 10.1315 5.32809 10.0542 5.13359 10.0542H3.66693C3.47243 10.0542 3.2859 10.1315 3.14837 10.269C3.01085 10.4065 2.93359 10.593 2.93359 10.7875V11.8875C2.93359 12.082 3.01085 12.2686 3.14837 12.4061C3.2859 12.5436 3.47243 12.6209 3.66693 12.6209H5.13359C5.32809 12.6209 5.51461 12.5436 5.65213 12.4061C5.78966 12.2686 5.86693 12.082 5.86693 11.8875V10.7875ZM3.66693 11.8875V10.7875H5.13359V11.8875H3.66693Z" fill="white"/>
<path d="M18.3333 12.6209C18.5278 12.6209 18.7143 12.5436 18.8518 12.4061C18.9894 12.2686 19.0666 12.082 19.0666 11.8875V10.7875C19.0666 10.593 18.9894 10.4065 18.8518 10.269C18.7143 10.1315 18.5278 10.0542 18.3333 10.0542H16.8666C16.6721 10.0542 16.4855 10.1315 16.348 10.269C16.2105 10.4065 16.1333 10.593 16.1333 10.7875V11.8875C16.1333 12.082 16.2105 12.2686 16.348 12.4061C16.4855 12.5436 16.6721 12.6209 16.8666 12.6209H18.3333ZM16.8666 10.7875H18.3333V11.8875H16.8666V10.7875Z" fill="white"/>
<path d="M10.2666 14.0878C10.2666 13.8934 10.1893 13.7069 10.0518 13.5692C9.91427 13.4317 9.72774 13.3545 9.53325 13.3545H8.06659C7.87209 13.3545 7.68557 13.4317 7.54804 13.5692C7.41051 13.7069 7.33325 13.8934 7.33325 14.0878V15.1878C7.33325 15.3823 7.41051 15.5688 7.54804 15.7064C7.68557 15.8439 7.87209 15.9212 8.06659 15.9212H9.53325C9.72774 15.9212 9.91427 15.8439 10.0518 15.7064C10.1893 15.5688 10.2666 15.3823 10.2666 15.1878V14.0878ZM8.06659 15.1878V14.0878H9.53325V15.1878H8.06659Z" fill="white"/>
<path d="M5.86693 14.0878C5.86693 13.8934 5.78966 13.7069 5.65213 13.5692C5.51461 13.4317 5.32809 13.3545 5.13359 13.3545H3.66693C3.47243 13.3545 3.2859 13.4317 3.14837 13.5692C3.01085 13.7069 2.93359 13.8934 2.93359 14.0878V15.1878C2.93359 15.3823 3.01085 15.5688 3.14837 15.7064C3.2859 15.8439 3.47243 15.9212 3.66693 15.9212H5.13359C5.32809 15.9212 5.51461 15.8439 5.65213 15.7064C5.78966 15.5688 5.86693 15.3823 5.86693 15.1878V14.0878ZM3.66693 15.1878V14.0878H5.13359V15.1878H3.66693Z" fill="white"/>
<path d="M9.53325 16.6548H8.06659C7.87209 16.6548 7.68557 16.732 7.54804 16.8695C7.41051 17.0072 7.33325 17.1937 7.33325 17.3881V18.4881C7.33325 18.6826 7.41051 18.8691 7.54804 19.0067C7.68557 19.1442 7.87209 19.2215 8.06659 19.2215H9.53325C9.72774 19.2215 9.91427 19.1442 10.0518 19.0067C10.1893 18.8691 10.2666 18.6826 10.2666 18.4881V17.3881C10.2666 17.1937 10.1893 17.0072 10.0518 16.8695C9.91427 16.732 9.72774 16.6548 9.53325 16.6548ZM8.06659 18.4881V17.3881H9.53325V18.4881H8.06659Z" fill="white"/>
<path d="M12.4665 12.6209H13.9332C14.1276 12.6209 14.3142 12.5436 14.4517 12.4061C14.5893 12.2686 14.6665 12.082 14.6665 11.8875V10.7875C14.6665 10.593 14.5893 10.4065 14.4517 10.269C14.3142 10.1315 14.1276 10.0542 13.9332 10.0542H12.4665C12.2719 10.0542 12.0854 10.1315 11.9479 10.269C11.8104 10.4065 11.7332 10.593 11.7332 10.7875V11.8875C11.7332 12.082 11.8104 12.2686 11.9479 12.4061C12.0854 12.5436 12.2719 12.6209 12.4665 12.6209ZM12.4665 10.7875H13.9332V11.8875H12.4665V10.7875Z" fill="white"/>
<path d="M11.7332 15.1878C11.7332 15.3823 11.8104 15.5688 11.9479 15.7064C12.0854 15.8439 12.2719 15.9212 12.4665 15.9212C12.5637 15.9212 12.6569 15.8825 12.7258 15.8137C12.7946 15.745 12.8332 15.6518 12.8332 15.5545C12.8332 15.4572 12.7946 15.3639 12.7258 15.2953C12.6569 15.2264 12.5637 15.1878 12.4665 15.1878V14.0878H13.9332C14.0304 14.0878 14.1236 14.0492 14.1924 13.9804C14.2612 13.9117 14.2999 13.8184 14.2999 13.7212C14.2999 13.6239 14.2612 13.5306 14.1924 13.4619C14.1236 13.3931 14.0304 13.3545 13.9332 13.3545H12.4665C12.2719 13.3545 12.0854 13.4317 11.9479 13.5692C11.8104 13.7069 11.7332 13.8934 11.7332 14.0878V15.1878Z" fill="white"/>
<path d="M5.13359 16.6548H3.66693C3.47243 16.6548 3.2859 16.732 3.14837 16.8695C3.01085 17.0072 2.93359 17.1937 2.93359 17.3881V18.4881C2.93359 18.6826 3.01085 18.8691 3.14837 19.0067C3.2859 19.1442 3.47243 19.2215 3.66693 19.2215H5.13359C5.32809 19.2215 5.51461 19.1442 5.65213 19.0067C5.78966 18.8691 5.86693 18.6826 5.86693 18.4881V17.3881C5.86693 17.1937 5.78966 17.0072 5.65213 16.8695C5.51461 16.732 5.32809 16.6548 5.13359 16.6548ZM3.66693 18.4881V17.3881H5.13359V18.4881H3.66693Z" fill="white"/>
<path d="M17.2333 13.3545C16.2904 13.3545 15.3689 13.634 14.585 14.1579C13.8011 14.6816 13.1902 15.426 12.8294 16.297C12.4687 17.1681 12.3742 18.1264 12.5581 19.0511C12.7421 19.9758 13.196 20.8251 13.8627 21.4917C14.5293 22.1583 15.3787 22.6123 16.3033 22.7963C17.2279 22.9801 18.1864 22.8857 19.0573 22.5249C19.9284 22.1641 20.6728 21.5533 21.1966 20.7693C21.7203 19.9855 21.9999 19.0639 21.9999 18.1212C21.9985 16.8574 21.4958 15.6458 20.6022 14.7522C19.7085 13.8587 18.497 13.356 17.2333 13.3545ZM17.2333 22.1545C16.4355 22.1545 15.6557 21.918 14.9924 21.4747C14.3291 21.0315 13.8121 20.4017 13.507 19.6647C13.2016 18.9277 13.1217 18.1166 13.2774 17.3343C13.433 16.5519 13.8172 15.8333 14.3812 15.2691C14.9453 14.705 15.6639 14.3209 16.4464 14.1653C17.2287 14.0097 18.0397 14.0895 18.7767 14.3948C19.5137 14.7002 20.1436 15.217 20.5868 15.8803C21.03 16.5436 21.2666 17.3234 21.2666 18.1212C21.2653 19.1905 20.8399 20.2157 20.0839 20.9717C19.3277 21.7279 18.3026 22.1533 17.2333 22.1545Z" fill="white"/>
<path fill-rule="evenodd" clip-rule="evenodd" d="M21.6333 18.1212C21.6333 20.5512 19.6633 22.5212 17.2333 22.5212C14.8032 22.5212 12.8333 20.5512 12.8333 18.1212C12.8333 15.6912 14.8032 13.7212 17.2333 13.7212C19.6633 13.7212 21.6333 15.6912 21.6333 18.1212ZM16.4999 19.4361L19.3519 16.5841C19.4209 16.5173 19.5136 16.4804 19.6097 16.4812C19.7058 16.4821 19.7978 16.5206 19.8658 16.5886C19.9338 16.6566 19.9724 16.7485 19.9732 16.8447C19.974 16.9408 19.9371 17.0334 19.8703 17.1026L16.7592 20.2138C16.6903 20.2824 16.5971 20.3211 16.4999 20.3211C16.4026 20.3211 16.3094 20.2824 16.2407 20.2138L14.6853 18.658C14.6184 18.5888 14.5815 18.4962 14.5824 18.4001C14.5831 18.3039 14.6217 18.212 14.6897 18.144C14.7576 18.076 14.8497 18.0375 14.9457 18.0366C15.0419 18.0358 15.1346 18.0727 15.2038 18.1395L16.4999 19.4361Z" fill="white"/>
</svg>
