<svg width="22" height="23" viewBox="0 0 22 23" fill="none" xmlns="http://www.w3.org/2000/svg">
<path d="M8.56424 13.3965H3.92855C3.48855 13.3965 3.14285 13.0298 3.14285 12.5632C3.14285 12.1049 3.48855 11.7299 3.92855 11.7299H7.63711C7.41711 11.2299 7.24425 10.7049 7.11855 10.1549H3.92855C3.48855 10.1549 3.14285 9.77993 3.14285 9.32161C3.14285 8.86329 3.48855 8.48831 3.92855 8.48831H6.89069C6.88283 8.34665 6.88283 8.21332 6.88283 8.07166C6.88283 7.08001 7.03997 6.13004 7.32283 5.2384H2.82855C1.265 5.2384 0 6.58836 0 8.23831V16.8881C0 18.4298 1.10786 19.7131 2.52999 19.863V21.6213C2.52999 22.1129 2.78927 22.5462 3.2057 22.7629C3.3707 22.8463 3.55141 22.8879 3.72427 22.8879C3.99141 22.8879 4.2507 22.7963 4.46284 22.6129L6.23069 21.138C7.18925 20.3296 8.39925 19.8796 9.63282 19.8796H15.0699C16.6257 19.8796 17.8985 18.538 17.8985 16.8881V16.4547C17.0577 16.7547 16.1621 16.9215 15.2271 16.9215C12.5085 16.9215 10.0885 15.5381 8.56424 13.3965ZM8.94924 16.6465H3.92855C3.48855 16.6465 3.14285 16.2714 3.14285 15.813C3.14285 15.3547 3.48855 14.9798 3.92855 14.9798H8.94924C9.38138 14.9798 9.73496 15.3547 9.73496 15.813C9.73496 16.2714 9.38138 16.6465 8.94924 16.6465Z" fill="white"/>
<path d="M15.2269 0.887939C11.4869 0.887939 8.4541 4.11285 8.4541 8.07108C8.4541 12.0376 11.4869 15.2541 15.2269 15.2541C18.9591 15.2541 21.9997 12.0376 21.9997 8.07108C21.9997 4.11285 18.9591 0.887939 15.2269 0.887939ZM15.2191 12.696C14.7869 12.696 14.4334 12.321 14.4334 11.8626C14.4334 11.4043 14.7791 11.0293 15.2112 11.0293H15.2191C15.6512 11.0293 16.0048 11.4043 16.0048 11.8626C16.0048 12.321 15.6512 12.696 15.2191 12.696ZM16.0126 8.84606V9.35438C16.0126 9.8127 15.6591 10.1877 15.2269 10.1877C14.7948 10.1877 14.4412 9.8127 14.4412 9.35438V8.17107C14.4412 7.71275 14.7948 7.33776 15.2269 7.33776C15.5962 7.33776 15.9026 7.02111 15.9026 6.62111C15.9026 6.22946 15.5962 5.9128 15.2269 5.9128C14.8576 5.9128 14.5512 6.22946 14.5512 6.62111C14.5512 7.08777 14.1976 7.45442 13.7655 7.45442C13.3334 7.45442 12.9798 7.08777 12.9798 6.62111C12.9798 5.31282 13.9855 4.24618 15.2269 4.24618C16.4605 4.24618 17.4741 5.31282 17.4741 6.62111C17.4741 7.64609 16.8612 8.50439 16.0126 8.84606Z" fill="white"/>
</svg>
