<svg width="22" height="22" viewBox="0 0 22 22" fill="none" xmlns="http://www.w3.org/2000/svg">
<mask id="mask0_3566_30259" style="mask-type:luminance" maskUnits="userSpaceOnUse" x="0" y="0" width="22" height="22">
<path d="M22 0H0V22H22V0Z" fill="white"/>
</mask>
<g mask="url(#mask0_3566_30259)">
<path d="M21.3555 19.4219H0.644532C0.288579 19.4219 0 19.7104 0 20.0665C0 20.4224 0.288579 20.711 0.644532 20.711H1.33203V21.3556C1.33203 21.7115 1.62061 22 1.97657 22C2.33251 22 2.62109 21.7115 2.62109 21.3556V20.711H3.91016V21.3556C3.91016 21.7115 4.19874 22 4.55469 22C4.91065 22 5.19922 21.7115 5.19922 21.3556V20.711H6.48828V21.3556C6.48828 21.7115 6.77686 22 7.13282 22C7.48876 22 7.77734 21.7115 7.77734 21.3556V20.711H9.06641V21.3556C9.06641 21.7115 9.35499 22 9.71094 22C10.0669 22 10.3555 21.7115 10.3555 21.3556V20.711H11.6445V21.3556C11.6445 21.7115 11.9331 22 12.2891 22C12.645 22 12.9337 21.7115 12.9337 21.3556V20.711H14.2226V21.3556C14.2226 21.7115 14.5112 22 14.8672 22C15.2231 22 15.5117 21.7115 15.5117 21.3556V20.711H16.8008V21.3556C16.8008 21.7115 17.0893 22 17.4454 22C17.8013 22 18.0898 21.7115 18.0898 21.3556V20.711H19.3789V21.3556C19.3789 21.7115 19.6675 22 20.0234 22C20.3794 22 20.668 21.7115 20.668 21.3556V20.711H21.3555C21.7114 20.711 22 20.4224 22 20.0665C22 19.7104 21.7114 19.4219 21.3555 19.4219Z" fill="#078DEE"/>
<path d="M2.40625 18.1328H4.125C4.48094 18.1328 4.76952 17.8442 4.76952 17.4883V9.7539C4.76952 9.39795 4.48094 9.10938 4.125 9.10938H2.40625C2.05029 9.10938 1.76172 9.39795 1.76172 9.7539V17.4883C1.76172 17.8442 2.05029 18.1328 2.40625 18.1328Z" fill="#078DEE"/>
<path d="M17.8749 5.67188C17.519 5.67188 17.2305 5.96045 17.2305 6.3164V17.4883C17.2305 17.8442 17.519 18.1328 17.8749 18.1328H19.5938C19.9497 18.1328 20.2382 17.8442 20.2382 17.4883V6.3164C20.2382 5.96045 19.9497 5.67188 19.5938 5.67188H17.8749Z" fill="#078DEE"/>
<path d="M7.5625 5.67188C7.20654 5.67188 6.91797 5.96045 6.91797 6.3164V17.4883C6.91797 17.8442 7.20654 18.1328 7.5625 18.1328H9.28125C9.63719 18.1328 9.92577 17.8442 9.92577 17.4883V6.3164C9.92577 5.96045 9.63719 5.67188 9.28125 5.67188H7.5625Z" fill="#078DEE"/>
<path d="M12.7188 9.10938C12.3628 9.10938 12.0742 9.39795 12.0742 9.7539V17.4883C12.0742 17.8442 12.3628 18.1328 12.7188 18.1328H14.4375C14.7935 18.1328 15.0821 17.8442 15.0821 17.4883V9.7539C15.0821 9.39795 14.7935 9.10938 14.4375 9.10938H12.7188Z" fill="#078DEE"/>
<path d="M3.26561 6.44535C4.09487 6.44535 4.76952 5.77069 4.76952 4.94144C4.76952 4.86762 4.76394 4.79509 4.75363 4.72407L7.64929 2.7936C7.87523 2.92951 8.13952 3.00785 8.42186 3.00785C8.70422 3.00785 8.96852 2.92951 9.19449 2.7936L12.0902 4.72407C12.0798 4.79509 12.0743 4.86762 12.0743 4.94144C12.0743 5.77069 12.7488 6.44535 13.5781 6.44535C14.4074 6.44535 15.0821 5.77069 15.0821 4.94144C15.0821 4.86762 15.0764 4.79509 15.0662 4.72407L17.9619 2.7936C18.1877 2.92951 18.452 3.00785 18.7343 3.00785C19.5636 3.00785 20.2383 2.3332 20.2383 1.50395C20.2383 0.674694 19.5636 4.28996e-05 18.7343 4.28996e-05C17.9052 4.28996e-05 17.2305 0.674694 17.2305 1.50395C17.2305 1.57776 17.236 1.6503 17.2464 1.72132L14.3507 3.65177C14.1248 3.51586 13.8605 3.43753 13.5781 3.43753C13.2958 3.43753 13.0314 3.51586 12.8056 3.65174L9.90988 1.72129C9.92019 1.65025 9.92577 1.57776 9.92577 1.5039C9.92577 0.674651 9.25112 0 8.42186 0C7.59261 0 6.91797 0.674651 6.91797 1.5039C6.91797 1.57772 6.92355 1.65025 6.93386 1.72129L4.03819 3.65174C3.81227 3.51586 3.54792 3.43753 3.26561 3.43753C2.43636 3.43753 1.76172 4.11219 1.76172 4.94144C1.76172 5.77069 2.43636 6.44535 3.26561 6.44535Z" fill="#078DEE"/>
</g>
</svg>
